<svg width="633" height="633" viewBox="0 0 633 633" fill="none" xmlns="http://www.w3.org/2000/svg">
<rect width="633" height="633" rx="316.5" fill="url(#paint0_linear_600_30)"/>
<path d="M257.094 477.412C240.56 477.412 225.616 474.11 212.251 467.52C198.886 460.931 188.332 451.556 180.602 439.437C172.858 427.319 169 413.224 169 397.167C169 379.692 173.296 364.351 181.928 351.158C190.546 337.965 202.678 327.703 218.324 320.397C233.97 313.091 251.816 309.432 271.864 309.432H366.813V350.628H279.25C269.04 350.628 260.077 352.153 252.347 355.176C244.604 358.212 238.544 362.76 234.142 368.819C229.74 374.892 227.552 382.198 227.552 390.75C227.552 402.166 231.504 410.997 239.419 417.229C247.335 423.474 257.796 426.589 270.804 426.589C283.811 426.589 296.394 423.646 307.465 417.759C318.536 411.872 327.327 403.492 333.837 392.62C340.334 381.747 343.596 369.35 343.596 355.441V300.866C343.596 289.092 341.568 279.108 337.523 270.901C333.479 262.693 327.407 256.448 319.319 252.179C311.231 247.896 301.379 245.761 289.777 245.761C274.304 245.761 261.376 249.156 251.008 255.931C240.626 262.707 233.161 273.049 228.587 286.958L176.889 279.466C183.917 253.439 197.017 233.006 216.189 218.209C235.349 203.412 260.236 196 290.838 196C314.055 196 334.01 200.376 350.716 209.113C367.41 217.851 380.072 229.983 388.704 245.496C397.322 261.009 401.631 279.294 401.631 300.336V406.276C401.631 412.694 402.864 417.427 405.317 420.45C407.77 423.487 411.814 424.998 417.449 424.998H427.473V471.551C424.304 471.896 420.791 472.174 416.919 472.36C413.047 472.532 409.003 472.625 404.787 472.625C387.908 472.625 375.06 468.17 366.283 459.247C357.492 450.337 353.09 438.032 353.09 422.333V406.276L368.391 420.729H350.451C340.242 439.278 327.155 453.36 311.151 462.999C295.147 472.625 277.128 477.438 257.08 477.438L257.094 477.412Z" fill="#0C0C0C"/>
<path d="M426.554 244.063C425.281 244.063 423.902 244.01 422.337 243.918L420.468 243.798V221.364L422.629 221.549C424.061 221.669 425.347 221.735 426.554 221.735C452.038 221.735 472.762 201.011 472.762 175.527C472.762 150.043 452.038 129.319 426.554 129.319C401.069 129.319 380.345 150.043 380.345 175.527C380.345 179.24 380.796 182.952 381.685 186.559L382.295 189.025H359.343L359.051 187.381C358.362 183.443 358.004 179.465 358.004 175.54C358.004 137.752 388.752 107.004 426.54 107.004C464.329 107.004 495.077 137.752 495.077 175.54C495.077 213.329 464.329 244.077 426.54 244.077L426.554 244.063Z" fill="#0C0C0C"/>
<path d="M426.525 108.978C463.226 108.978 493.073 138.837 493.073 175.525C493.073 212.213 463.213 242.073 426.525 242.073C425.146 242.073 423.781 242.02 422.428 241.94V223.537C423.781 223.656 425.146 223.722 426.525 223.722C453.096 223.722 474.722 202.097 474.722 175.525C474.722 148.954 453.096 127.328 426.525 127.328C399.954 127.328 378.328 148.954 378.328 175.525C378.328 179.49 378.819 183.335 379.734 187.021H360.999C360.336 183.282 359.991 179.437 359.991 175.525C359.991 138.824 389.85 108.978 426.538 108.978M426.525 105C387.636 105 356 136.636 356 175.525C356 179.569 356.358 183.666 357.074 187.71L357.657 190.999H384.812L383.592 186.066C382.744 182.619 382.306 179.065 382.306 175.512C382.306 151.128 402.142 131.293 426.525 131.293C450.909 131.293 470.744 151.128 470.744 175.512C470.744 199.896 450.909 219.731 426.525 219.731C425.358 219.731 424.139 219.678 422.773 219.559L418.464 219.188V245.653L422.203 245.878C423.807 245.971 425.226 246.024 426.538 246.024C465.427 246.024 497.064 214.388 497.064 175.499C497.064 136.61 465.414 105 426.525 105Z" fill="#0C0C0C"/>
<defs>
<linearGradient id="paint0_linear_600_30" x1="649" y1="-69.0001" x2="-27.5" y2="633" gradientUnits="userSpaceOnUse">
<stop stop-color="#E5E9F0"/>
<stop offset="0.332184" stop-color="#F9F9F9"/>
<stop offset="0.439343" stop-color="#C9EAFF"/>
<stop offset="0.642603" stop-color="#EAFFFC"/>
<stop offset="0.791621" stop-color="white"/>
<stop offset="1" stop-color="#E5E9F0"/>
</linearGradient>
</defs>
</svg>
