<svg width="230" height="218" viewBox="0 0 230 218" fill="none" xmlns="http://www.w3.org/2000/svg">
<g clip-path="url(#clip0_1240_2251)">
<line x1="108.38" y1="-9.50645" x2="2.60794" y2="134.914" stroke="#58AAE4"/>
<line x1="113.181" y1="-5.90732" x2="7.40872" y2="138.513" stroke="#58AAE4"/>
<line x1="117.982" y1="-2.30833" x2="12.2095" y2="142.112" stroke="#58AAE4"/>
<line x1="122.782" y1="1.2908" x2="17.0103" y2="145.711" stroke="#58AAE4"/>
<line x1="127.583" y1="4.88979" x2="21.8111" y2="149.31" stroke="#58AAE4"/>
<line x1="132.384" y1="8.48892" x2="26.6119" y2="152.909" stroke="#58AAE4"/>
<line x1="137.185" y1="12.088" x2="31.4126" y2="156.509" stroke="#58AAE4"/>
<line x1="141.985" y1="15.687" x2="36.2134" y2="160.108" stroke="#58AAE4"/>
<line x1="146.786" y1="19.2862" x2="41.0142" y2="163.707" stroke="#58AAE4"/>
<line x1="151.587" y1="22.8852" x2="45.815" y2="167.306" stroke="#58AAE4"/>
<line x1="156.384" y1="26.4843" x2="50.6119" y2="170.905" stroke="#58AAE4"/>
<line x1="161.185" y1="30.0833" x2="55.4126" y2="174.504" stroke="#58AAE4"/>
<line x1="165.985" y1="33.6824" x2="60.2134" y2="178.103" stroke="#58AAE4"/>
<line x1="170.786" y1="37.2815" x2="65.0142" y2="181.702" stroke="#58AAE4"/>
<line x1="175.587" y1="40.8805" x2="69.815" y2="185.301" stroke="#58AAE4"/>
<line x1="180.388" y1="44.4796" x2="74.6158" y2="188.9" stroke="#58AAE4"/>
<line x1="185.189" y1="48.0786" x2="79.4165" y2="192.499" stroke="#58AAE4"/>
<line x1="189.989" y1="51.6778" x2="84.2173" y2="196.098" stroke="#58AAE4"/>
<line x1="194.79" y1="55.2769" x2="89.0181" y2="199.697" stroke="#58AAE4"/>
<line x1="199.591" y1="58.8759" x2="93.8189" y2="203.296" stroke="#58AAE4"/>
<line x1="204.392" y1="62.475" x2="98.6197" y2="206.896" stroke="#58AAE4"/>
<line x1="209.192" y1="66.074" x2="103.42" y2="210.495" stroke="#58AAE4"/>
<line x1="213.993" y1="69.6731" x2="108.221" y2="214.094" stroke="#58AAE4"/>
<line x1="218.794" y1="73.2721" x2="113.022" y2="217.693" stroke="#58AAE4"/>
<line x1="223.595" y1="76.8712" x2="117.823" y2="221.292" stroke="#58AAE4"/>
<line x1="228.396" y1="80.4704" x2="122.624" y2="224.891" stroke="#58AAE4"/>
</g>
<rect x="98.4751" y="-11.3" width="163" height="163" rx="81.5" transform="rotate(36.8588 98.4751 -11.3)" stroke="#58AAE4" stroke-dasharray="6 6"/>
<defs>
<clipPath id="clip0_1240_2251">
<rect x="98.375" y="-12" width="164" height="164" rx="82" transform="rotate(36.8588 98.375 -12)" fill="white"/>
</clipPath>
</defs>
</svg>
