<svg width="173" height="173" viewBox="0 0 173 173" fill="none" xmlns="http://www.w3.org/2000/svg">
<path d="M133.017 19.4008L134.379 20.9534L134.427 21.066L136.495 23.4239L136.532 23.392L136.128 19.6246L136.448 19.8575L133.198 22.7091L132.567 21.9909L136.362 18.6619L137.024 19.4164L137.531 24.4285L136.617 25.2305L132.161 20.1519L133.017 19.4008Z" fill="white"/>
<path d="M166.849 71.6141C167.273 71.64 167.654 71.7375 167.992 71.9064C168.33 72.0753 168.606 72.3049 168.82 72.5952C169.028 72.8851 169.166 73.2158 169.233 73.5874L168.135 73.6846C168.051 73.3701 167.895 73.122 167.668 72.9405C167.434 72.7586 167.147 72.6573 166.806 72.6365C166.536 72.62 166.302 72.6572 166.103 72.7482C165.904 72.8392 165.747 72.9778 165.633 73.1642C165.518 73.357 165.452 73.5883 165.436 73.8581C165.42 74.1214 165.454 74.3491 165.539 74.5412C165.617 74.7394 165.743 74.8954 165.917 75.0091C166.09 75.1229 166.305 75.1876 166.562 75.2033C166.826 75.2194 167.063 75.1791 167.275 75.0825C167.487 74.9923 167.667 74.8486 167.814 74.6513L168.874 74.7161L168.309 78.5784L164.263 78.331L164.323 77.3484L167.849 77.564L167.359 77.9885L167.712 75.6894L167.664 75.6865C167.5 75.844 167.296 75.9605 167.053 76.0359C166.81 76.1113 166.544 76.1401 166.255 76.1224C165.844 76.0973 165.486 75.982 165.183 75.7765C164.873 75.5771 164.642 75.3018 164.489 74.9508C164.33 74.5995 164.264 74.2054 164.291 73.7687C164.318 73.3127 164.443 72.9142 164.663 72.5731C164.884 72.2385 165.183 71.986 165.561 71.8157C165.938 71.6519 166.368 71.5847 166.849 71.6141Z" fill="white"/>
<path d="M153.554 132.498C153.905 132.891 154.115 133.316 154.185 133.771C154.251 134.221 154.17 134.686 153.942 135.165C153.71 135.64 153.332 136.11 152.809 136.577C152.242 137.083 151.682 137.44 151.127 137.65C150.564 137.86 150.039 137.914 149.553 137.814C149.066 137.713 148.645 137.463 148.29 137.065C147.921 136.652 147.715 136.198 147.67 135.704C147.616 135.208 147.741 134.744 148.043 134.31L148.846 134.978C148.709 135.22 148.657 135.461 148.689 135.7C148.716 135.934 148.822 136.154 149.007 136.361C149.217 136.596 149.463 136.742 149.747 136.799C150.022 136.856 150.332 136.821 150.676 136.695C151.011 136.568 151.368 136.349 151.746 136.038L151.713 136.002C151.41 136.049 151.116 136.014 150.831 135.897C150.541 135.785 150.28 135.599 150.049 135.34C149.771 135.028 149.592 134.683 149.513 134.305C149.43 133.931 149.451 133.558 149.577 133.187C149.698 132.82 149.917 132.496 150.234 132.213C150.56 131.922 150.922 131.737 151.318 131.659C151.715 131.582 152.109 131.613 152.502 131.754C152.89 131.899 153.241 132.147 153.554 132.498ZM152.811 133.173C152.653 132.996 152.468 132.871 152.258 132.8C152.044 132.724 151.828 132.709 151.611 132.756C151.385 132.803 151.181 132.907 150.999 133.07C150.816 133.233 150.691 133.422 150.625 133.637C150.553 133.847 150.543 134.063 150.595 134.284C150.637 134.505 150.737 134.705 150.895 134.882C151.062 135.07 151.256 135.199 151.475 135.271C151.689 135.347 151.909 135.362 152.135 135.315C152.357 135.273 152.556 135.173 152.734 135.014C152.911 134.856 153.036 134.667 153.108 134.448C153.175 134.233 153.185 134.012 153.138 133.787C153.087 133.565 152.978 133.36 152.811 133.173Z" fill="white"/>
<path d="M101.161 167.475L95.6203 164.786L95.5721 164.783L95.3988 168.07L94.3675 168.016L94.6024 163.563L95.6819 163.62L101.226 166.261L101.161 167.475Z" fill="white"/>
<path d="M35.532 153.88L34.6385 153.987L34.5856 153.67L34.613 152.12L34.8116 152.253L33.6844 153.093L33.4395 153.211L33.0273 152.412L33.2872 152.268L34.5653 151.838L34.5495 152.022L33.4518 151.128L33.2638 150.921L33.9428 150.304L34.1309 150.512L34.914 151.691L34.7296 151.689L35.2814 150.458L35.4504 150.214L36.2056 150.701L36.0645 150.934L35.1189 151.974L35.0062 151.764L36.5441 151.893L36.8615 151.97L36.6685 152.849L36.3848 152.78L34.9434 152.212L35.0649 152.101L35.4914 153.591L35.532 153.88ZM43.6331 150.634L42.0679 150.504L41.8907 150.495L38.6175 150.22C38.1864 150.185 37.8344 150.118 37.5614 150.018C37.2841 149.914 37.0589 149.766 36.886 149.576C36.6957 149.366 36.5754 149.123 36.525 148.848C36.4746 148.572 36.4994 148.297 36.5992 148.024C36.7037 147.747 36.8823 147.494 37.1348 147.265C37.3826 147.04 37.6472 146.891 37.9286 146.818C38.2148 146.741 38.4881 146.741 38.7486 146.817C39.0091 146.893 39.2366 147.039 39.4312 147.253C39.6214 147.463 39.7409 147.724 39.7895 148.036C39.8429 148.344 39.8202 148.716 39.7216 149.153L39.6322 149.586L38.8104 149.485L38.8848 149.078C38.9382 148.821 38.9491 148.599 38.9172 148.41C38.8901 148.218 38.8225 148.062 38.7144 147.943C38.5761 147.79 38.4136 147.712 38.2271 147.707C38.0362 147.698 37.8645 147.762 37.7121 147.901C37.5548 148.044 37.4692 148.212 37.4551 148.408C37.4415 148.594 37.5039 148.763 37.6423 148.916C37.7461 149.03 37.8921 149.119 38.0803 149.183C38.2733 149.242 38.5286 149.284 38.8462 149.309L44.5766 149.778L43.6331 150.634ZM41.5816 152.639C41.2814 152.912 40.9622 153.106 40.6241 153.221C40.2864 153.328 39.9598 153.346 39.6443 153.276C39.3289 153.206 39.0544 153.043 38.8209 152.785C38.5658 152.504 38.4094 152.16 38.3518 151.751C38.2942 151.343 38.334 150.899 38.4712 150.418L38.6503 149.825L39.5495 149.883L39.3769 150.482C39.2878 150.815 39.2577 151.108 39.2864 151.359C39.3152 151.611 39.4053 151.821 39.5566 151.988C39.682 152.126 39.828 152.215 39.9946 152.255C40.1568 152.29 40.3282 152.278 40.5088 152.218C40.6898 152.15 40.8589 152.044 41.0161 151.901C41.2496 151.689 41.4078 151.433 41.4908 151.132C41.5738 150.831 41.5853 150.499 41.5255 150.136L42.4572 150.085C42.5229 150.608 42.4816 151.084 42.3331 151.514C42.1895 151.94 41.939 152.315 41.5816 152.639ZM42.4119 149.892L41.4965 149.888L41.2435 148.346L42.0368 147.626L42.4119 149.892Z" fill="white"/>
<path d="M5.64354 101.719L5.8459 97.1578L4.52494 97.0992L4.569 96.1061L5.53321 96.1489C5.67462 96.1552 5.78225 96.1245 5.8561 96.0569C5.92995 95.9894 5.97015 95.8817 5.97671 95.7338L6.01051 94.9721L7.07113 95.0192L6.77165 101.769L5.64354 101.719Z" fill="white"/>
<path d="M16.5344 38.896L17.3288 38.1629L20.153 38.4199C20.6615 38.4585 21.0903 38.4393 21.4394 38.3623C21.7977 38.2856 22.0832 38.1491 22.296 37.9527C22.523 37.7433 22.6347 37.5133 22.6311 37.2627C22.6318 37.0168 22.5188 36.771 22.2919 36.5251C22.065 36.2792 21.8155 36.1416 21.5435 36.1125C21.2805 36.0837 20.9887 36.1517 20.6679 36.3164L20.0679 35.4385C20.5906 35.1225 21.1147 34.9979 21.6402 35.0645C22.1701 35.1359 22.6445 35.3986 23.0634 35.8526C23.3557 36.1694 23.5517 36.5051 23.6513 36.8597C23.76 37.2147 23.769 37.5566 23.6784 37.8853C23.5921 38.2188 23.4095 38.5143 23.1305 38.7717C22.8184 39.0597 22.4236 39.2533 21.946 39.3525C21.4685 39.4517 20.8759 39.4689 20.1681 39.404L18.3368 39.2553L18.3013 39.288L20.422 41.5862L19.663 42.2865L16.5344 38.896Z" fill="white"/>
<path d="M69.7501 5.76932C69.7665 5.31277 69.8549 4.91355 70.0153 4.57164C70.1757 4.22974 70.4081 3.94515 70.7124 3.71788C71.0166 3.49704 71.3827 3.34282 71.8108 3.25521L71.9269 4.32174C71.5436 4.4174 71.2575 4.58416 71.0687 4.82203C70.886 5.06656 70.7876 5.38494 70.7735 5.77718C70.7638 6.04725 70.7942 6.27691 70.8646 6.46616C70.9351 6.65542 71.0425 6.80093 71.1869 6.90271C71.3378 7.00471 71.5225 7.05965 71.7411 7.06752C71.9533 7.07516 72.1383 7.03353 72.2961 6.94263C72.4539 6.85173 72.5746 6.71765 72.6583 6.54038C72.7484 6.36335 72.7979 6.14944 72.8069 5.89866L72.8365 5.07882L73.8106 5.11388L73.7822 5.90479C73.7743 6.12342 73.806 6.3145 73.8774 6.47803C73.9486 6.64799 74.0565 6.78065 74.2011 6.87599C74.3458 6.97134 74.5145 7.02249 74.7074 7.02943C74.9068 7.0366 75.0788 6.99773 75.2235 6.9128C75.3746 6.8281 75.4918 6.70354 75.575 6.53914C75.6582 6.37473 75.7039 6.17678 75.7122 5.9453C75.7245 5.6045 75.6481 5.31201 75.4831 5.06785C75.318 4.82368 75.0699 4.65057 74.7388 4.54851L74.9306 3.51238C75.5169 3.68156 75.9663 3.98426 76.279 4.42045C76.5914 4.86308 76.7365 5.39304 76.7143 6.01034C76.6988 6.44116 76.6079 6.82098 76.4415 7.14979C76.2749 7.48504 76.05 7.74092 75.7668 7.91744C75.4834 8.1004 75.1648 8.18551 74.8112 8.17278C74.4318 8.15912 74.1016 8.03134 73.8205 7.78944C73.5393 7.55397 73.345 7.22827 73.2376 6.81234L73.382 6.82719C73.2495 7.286 73.0277 7.63535 72.7165 7.87525C72.405 8.12158 72.0274 8.23676 71.5837 8.22079C71.1979 8.2069 70.8607 8.09497 70.5721 7.88498C70.2897 7.68166 70.0778 7.39718 69.9364 7.03153C69.7951 6.66589 69.733 6.24515 69.7501 5.76932Z" fill="white"/>
</svg>
