<svg width="173" height="173" viewBox="0 0 173 173" fill="none" xmlns="http://www.w3.org/2000/svg">
<path d="M134.616 17.8536C135.013 17.5056 135.439 17.2986 135.894 17.2327C136.345 17.1709 136.809 17.256 137.287 17.4878C137.759 17.7238 138.227 18.1054 138.689 18.6326C139.19 19.2034 139.543 19.7667 139.748 20.3227C139.953 20.8878 140.003 21.4131 139.898 21.8987C139.794 22.3843 139.541 22.8032 139.139 23.1554C138.723 23.5203 138.268 23.7231 137.773 23.7637C137.277 23.8134 136.813 23.6851 136.382 23.3788L137.056 22.5816C137.298 22.7205 137.538 22.775 137.778 22.745C138.012 22.7193 138.233 22.6152 138.441 22.4327C138.678 22.2248 138.826 21.9791 138.886 21.6958C138.945 21.4215 138.912 21.1116 138.789 20.7662C138.665 20.4298 138.449 20.0714 138.141 19.6911L138.105 19.7229C138.149 20.0267 138.111 20.3207 137.993 20.6047C137.878 20.8936 137.69 21.1526 137.429 21.3817C137.114 21.6576 136.768 21.8332 136.389 21.9088C136.015 21.9892 135.642 21.9649 135.272 21.8358C134.906 21.7116 134.584 21.4899 134.303 21.1707C134.015 20.8418 133.833 20.4788 133.759 20.0819C133.685 19.6849 133.72 19.2905 133.864 18.8987C134.012 18.5117 134.263 18.1633 134.616 17.8536ZM135.285 18.6017C135.106 18.7587 134.98 18.942 134.907 19.1515C134.83 19.3653 134.813 19.5808 134.858 19.798C134.903 20.0244 135.006 20.2294 135.167 20.4132C135.328 20.597 135.516 20.7233 135.73 20.792C135.94 20.865 136.156 20.8768 136.378 20.8275C136.599 20.7872 136.799 20.6886 136.978 20.5316C137.167 20.3661 137.298 20.174 137.372 19.9554C137.449 19.7417 137.466 19.5216 137.422 19.2953C137.381 19.0738 137.283 18.8736 137.126 18.6946C136.969 18.5157 136.781 18.3894 136.562 18.3159C136.348 18.2471 136.128 18.235 135.901 18.2795C135.679 18.3288 135.474 18.4362 135.285 18.6017ZM131.978 20.3094L133.921 26.154L133.953 26.1903L136.427 24.0197L137.108 24.796L133.756 27.7367L133.043 26.9242L131.064 21.1114L131.978 20.3094Z" fill="white"/>
<path d="M169.623 71.7841C170.079 71.812 170.476 71.9104 170.814 72.0793C171.152 72.2482 171.431 72.4877 171.65 72.7976C171.863 73.1072 172.008 73.4771 172.085 73.9072L171.016 73.9966C170.93 73.611 170.77 73.3208 170.537 73.1261C170.297 72.9373 169.982 72.831 169.59 72.8071C169.32 72.7906 169.09 72.8152 168.899 72.8808C168.708 72.9465 168.56 73.0503 168.454 73.1921C168.349 73.3403 168.289 73.5236 168.276 73.742C168.263 73.9539 168.3 74.1399 168.387 74.2999C168.474 74.46 168.605 74.584 168.78 74.6721C168.954 74.7666 169.167 74.8215 169.417 74.8368L170.236 74.8868L170.177 75.8598L169.387 75.8115C169.169 75.7982 168.977 75.8251 168.811 75.8924C168.64 75.9592 168.504 76.0638 168.405 76.206C168.307 76.3482 168.251 76.5157 168.239 76.7083C168.227 76.9074 168.262 77.0804 168.343 77.2272C168.424 77.3804 168.545 77.5006 168.708 77.5879C168.87 77.6752 169.067 77.7259 169.298 77.74C169.638 77.7608 169.933 77.6918 170.181 77.5329C170.429 77.374 170.608 77.1304 170.719 76.8019L171.75 77.0197C171.566 77.6015 171.252 78.0432 170.808 78.3448C170.358 78.6461 169.824 78.7778 169.208 78.7401C168.778 78.7138 168.4 78.6134 168.076 78.4388C167.745 78.2639 167.494 78.0326 167.325 77.7451C167.149 77.4571 167.072 77.1366 167.094 76.7833C167.117 76.4044 167.253 76.0775 167.502 75.8026C167.744 75.5274 168.075 75.3413 168.493 75.2444L168.475 75.3883C168.019 75.2445 167.676 75.0139 167.444 74.6968C167.205 74.3792 167.1 73.9989 167.127 73.5557C167.15 73.1704 167.271 72.8361 167.488 72.5528C167.698 72.2756 167.988 72.0709 168.357 71.9388C168.726 71.8066 169.148 71.7551 169.623 71.7841ZM164.073 71.4448C164.497 71.4707 164.877 71.5681 165.215 71.737C165.553 71.9059 165.829 72.1355 166.043 72.4258C166.251 72.7157 166.389 73.0465 166.456 73.418L165.358 73.5153C165.274 73.2007 165.118 72.9527 164.891 72.7712C164.657 72.5893 164.37 72.4879 164.029 72.4671C163.76 72.4506 163.525 72.4878 163.326 72.5788C163.127 72.6698 162.971 72.8085 162.856 72.9949C162.741 73.1877 162.676 73.4189 162.659 73.6887C162.643 73.952 162.677 74.1797 162.762 74.3719C162.84 74.57 162.966 74.726 163.14 74.8397C163.313 74.9535 163.529 75.0182 163.786 75.0339C164.049 75.05 164.287 75.0098 164.499 74.9132C164.711 74.823 164.89 74.6792 165.038 74.482L166.097 74.5468L165.532 78.409L161.486 78.1617L161.546 77.179L165.072 77.3946L164.582 77.8191L164.935 75.52L164.887 75.5171C164.723 75.6746 164.519 75.7911 164.276 75.8665C164.033 75.9419 163.767 75.9707 163.478 75.9531C163.067 75.9279 162.71 75.8126 162.406 75.6071C162.096 75.4077 161.865 75.1325 161.712 74.7815C161.553 74.4301 161.487 74.036 161.514 73.5993C161.542 73.1433 161.666 72.7448 161.887 72.4038C162.107 72.0691 162.406 71.8167 162.784 71.6464C163.161 71.4825 163.591 71.4153 164.073 71.4448Z" fill="white"/>
<path d="M154.863 133.969C155.176 134.319 155.398 134.69 155.531 135.08C155.659 135.475 155.685 135.852 155.61 136.213C155.531 136.568 155.349 136.872 155.066 137.125C154.86 137.309 154.622 137.435 154.354 137.501C154.081 137.572 153.801 137.581 153.512 137.529C153.223 137.476 152.949 137.362 152.691 137.188L152.85 137.033C153.052 137.404 153.131 137.774 153.087 138.14C153.039 138.511 152.866 138.829 152.568 139.095C152.304 139.331 152.003 139.466 151.663 139.501C151.315 139.536 150.968 139.475 150.621 139.319C150.27 139.167 149.95 138.93 149.663 138.608C149.376 138.287 149.177 137.943 149.066 137.576C148.95 137.214 148.931 136.864 149.01 136.527C149.083 136.194 149.252 135.91 149.516 135.674C149.713 135.499 149.929 135.379 150.165 135.315C150.402 135.251 150.643 135.246 150.891 135.301C151.134 135.352 151.367 135.458 151.59 135.621L151.418 135.762C151.21 135.345 151.136 134.919 151.197 134.485C151.253 134.055 151.44 133.699 151.757 133.416C152.04 133.163 152.365 133.02 152.732 132.986C153.094 132.948 153.464 133.014 153.841 133.186C154.21 133.358 154.55 133.618 154.863 133.969ZM154.121 134.631C153.954 134.444 153.773 134.303 153.578 134.21C153.378 134.121 153.179 134.087 152.982 134.108C152.781 134.124 152.598 134.205 152.435 134.35C152.267 134.5 152.164 134.674 152.125 134.873C152.077 135.07 152.089 135.272 152.159 135.476C152.225 135.685 152.341 135.883 152.508 136.07C152.675 136.257 152.861 136.398 153.065 136.491C153.26 136.585 153.459 136.619 153.661 136.594C153.858 136.573 154.041 136.488 154.209 136.338C154.372 136.192 154.475 136.023 154.518 135.829C154.561 135.636 154.549 135.434 154.484 135.226C154.409 135.016 154.288 134.818 154.121 134.631ZM151.853 136.655C151.703 136.487 151.541 136.364 151.368 136.285C151.19 136.202 151.014 136.174 150.84 136.201C150.661 136.222 150.494 136.302 150.341 136.439C150.192 136.572 150.096 136.726 150.055 136.901C150.008 137.072 150.017 137.25 150.079 137.436C150.137 137.617 150.241 137.791 150.391 137.959C150.541 138.127 150.704 138.253 150.882 138.336C151.055 138.414 151.231 138.442 151.41 138.421C151.585 138.394 151.747 138.314 151.896 138.182C152.049 138.045 152.149 137.891 152.195 137.72C152.237 137.545 152.229 137.367 152.171 137.186C152.109 137 152.003 136.823 151.853 136.655ZM152.321 131.279L146.493 133.271L146.457 133.304L148.648 135.759L147.877 136.447L144.909 133.12L145.715 132.4L151.511 130.372L152.321 131.279Z" fill="white"/>
<path d="M100.963 171.13L99.8832 171.073L98.0953 168.872C97.768 168.481 97.4549 168.187 97.1559 167.991C96.8509 167.788 96.5539 167.679 96.2647 167.664C95.9563 167.647 95.7136 167.728 95.5367 167.906C95.3602 168.077 95.2631 168.329 95.2455 168.663C95.2279 168.997 95.3036 169.272 95.4726 169.487C95.6356 169.696 95.888 169.857 96.2299 169.972L96.0203 171.014C95.4292 170.861 94.974 170.572 94.6548 170.15C94.336 169.72 94.1928 169.197 94.2254 168.581C94.2481 168.15 94.3516 167.775 94.5359 167.456C94.7142 167.131 94.9527 166.886 95.2513 166.721C95.5503 166.55 95.8893 166.474 96.2684 166.494C96.6925 166.517 97.1067 166.664 97.5112 166.937C97.9156 167.21 98.3417 167.622 98.7893 168.174L99.9615 169.589L100.01 169.591L100.174 166.468L101.206 166.523L100.963 171.13ZM101.473 163.474C101.449 163.93 101.354 164.328 101.188 164.667C101.022 165.006 100.784 165.287 100.476 165.509C100.169 165.725 99.7999 165.873 99.3704 165.953L99.2721 164.885C99.657 164.795 99.9458 164.634 100.139 164.399C100.325 164.157 100.429 163.841 100.45 163.449C100.464 163.179 100.437 162.949 100.37 162.758C100.303 162.568 100.198 162.421 100.055 162.316C99.906 162.212 99.7222 162.154 99.5038 162.142C99.2917 162.131 99.1061 162.17 98.9468 162.258C98.7875 162.346 98.6645 162.478 98.5779 162.654C98.4849 162.83 98.4318 163.043 98.4186 163.293L98.3754 164.113L97.4019 164.061L97.4436 163.271C97.4551 163.052 97.4266 162.861 97.3579 162.696C97.2897 162.525 97.184 162.391 97.0409 162.293C96.8979 162.195 96.73 162.141 96.5372 162.131C96.3381 162.12 96.1654 162.156 96.0193 162.239C95.8668 162.321 95.7476 162.444 95.6616 162.607C95.5757 162.77 95.5267 162.967 95.5145 163.198C95.4965 163.539 95.568 163.832 95.7289 164.079C95.8899 164.326 96.135 164.503 96.4644 164.611L96.2553 165.644C95.6719 165.465 95.2276 165.155 94.9223 164.713C94.6173 164.265 94.4811 163.733 94.5136 163.116C94.5363 162.686 94.6336 162.308 94.8054 161.982C94.9776 161.649 95.2068 161.397 95.4929 161.225C95.7793 161.047 96.0993 160.967 96.4527 160.986C96.8318 161.006 97.1598 161.139 97.4367 161.386C97.714 161.626 97.9028 161.955 98.0032 162.373L97.8592 162.355C97.9992 161.899 98.2269 161.553 98.5421 161.318C98.8576 161.077 99.2371 160.969 99.6804 160.992C100.066 161.012 100.401 161.13 100.686 161.345C100.965 161.553 101.172 161.841 101.308 162.209C101.443 162.577 101.498 162.998 101.473 163.474Z" fill="white"/>
<path d="M35.8686 157.817C35.4588 158.189 35.0065 158.404 34.5117 158.462C34.0174 158.511 33.552 158.386 33.1156 158.087L33.7766 157.279C34.0206 157.413 34.2594 157.466 34.4932 157.436C34.7317 157.402 34.9534 157.292 35.1583 157.106C35.3918 156.895 35.5357 156.651 35.5901 156.376C35.6449 156.092 35.6075 155.782 35.478 155.448C35.3489 155.105 35.1272 154.745 34.8129 154.37L34.7772 154.403C34.8262 154.706 34.7959 155.003 34.6861 155.293C34.572 155.579 34.3863 155.839 34.129 156.073C33.8192 156.354 33.4778 156.537 33.1046 156.624C32.7271 156.706 32.3545 156.688 31.9867 156.57C31.6146 156.447 31.2858 156.228 31.0005 155.914C30.7064 155.59 30.5189 155.23 30.4379 154.834C30.3569 154.439 30.3874 154.046 30.5293 153.657C30.6669 153.262 30.9096 152.908 31.2574 152.592C31.6482 152.237 32.0684 152.025 32.5182 151.956C32.9727 151.883 33.4381 151.96 33.9145 152.188C34.3955 152.412 34.8717 152.783 35.343 153.303C35.8532 153.865 36.2154 154.427 36.4295 154.989C36.6441 155.541 36.7032 156.061 36.6066 156.548C36.5101 157.035 36.2641 157.459 35.8686 157.817ZM33.6642 155.23C33.8501 155.061 33.9801 154.87 34.0543 154.655C34.1242 154.435 34.1372 154.214 34.0932 153.994C34.045 153.768 33.9409 153.567 33.7809 153.391C33.6209 153.215 33.4332 153.094 33.2177 153.029C32.9979 152.959 32.7774 152.95 32.5561 153.003C32.3306 153.052 32.1249 153.16 31.9391 153.329C31.758 153.493 31.6327 153.681 31.5633 153.891C31.4938 154.102 31.4832 154.32 31.5315 154.546C31.5802 154.762 31.6867 154.961 31.851 155.142C32.0153 155.323 32.2028 155.448 32.4136 155.518C32.629 155.583 32.8472 155.594 33.0679 155.55C33.2844 155.501 33.4832 155.394 33.6642 155.23ZM40.0915 153.986C39.6817 154.357 39.2294 154.572 38.7347 154.63C38.2403 154.679 37.775 154.554 37.3385 154.255L37.9996 153.447C38.2435 153.582 38.4824 153.634 38.7162 153.604C38.9547 153.571 39.1764 153.461 39.3813 153.275C39.6148 153.063 39.7587 152.819 39.8131 152.544C39.8679 152.26 39.8305 151.95 39.701 151.616C39.5719 151.273 39.3502 150.914 39.0359 150.538L39.0001 150.571C39.0492 150.874 39.0188 151.171 38.909 151.462C38.7949 151.748 38.6092 152.007 38.3519 152.241C38.0422 152.522 37.7007 152.706 37.3276 152.792C36.9501 152.874 36.5774 152.856 36.2096 152.738C35.8375 152.615 35.5088 152.396 35.2234 152.082C34.9294 151.758 34.7419 151.398 34.6609 151.002C34.5799 150.607 34.6104 150.214 34.7523 149.825C34.8898 149.431 35.1325 149.076 35.4804 148.76C35.8711 148.406 36.2914 148.194 36.7412 148.124C37.1957 148.051 37.6611 148.128 38.1374 148.356C38.6185 148.58 39.0947 148.952 39.566 149.471C40.0762 150.033 40.4384 150.595 40.6525 151.157C40.8671 151.709 40.9261 152.229 40.8296 152.716C40.733 153.204 40.487 153.627 40.0915 153.986ZM37.8872 151.398C38.0731 151.23 38.2031 151.038 38.2773 150.823C38.3472 150.603 38.3602 150.383 38.3162 150.162C38.268 149.936 38.1638 149.735 38.0039 149.559C37.8439 149.383 37.6561 149.262 37.4407 149.197C37.2209 149.127 37.0003 149.119 36.7791 149.172C36.5536 149.22 36.3479 149.328 36.162 149.497C35.981 149.661 35.8557 149.849 35.7863 150.06C35.7168 150.27 35.7062 150.488 35.7545 150.714C35.8032 150.93 35.9097 151.129 36.074 151.31C36.2383 151.491 36.4258 151.617 36.6365 151.686C36.852 151.751 37.0701 151.762 37.2909 151.718C37.5074 151.669 37.7061 151.563 37.8872 151.398ZM44.3145 150.154C43.9047 150.526 43.4524 150.74 42.9576 150.798C42.4633 150.847 41.9979 150.722 41.5615 150.423L42.2225 149.615C42.4665 149.75 42.7054 149.802 42.9391 149.773C43.1776 149.739 43.3994 149.629 43.6043 149.443C43.8377 149.231 43.9817 148.987 44.036 148.712C44.0908 148.428 44.0535 148.119 43.9239 147.784C43.7948 147.441 43.5731 147.082 43.2588 146.707L43.2231 146.739C43.2722 147.042 43.2418 147.339 43.132 147.63C43.0179 147.916 42.8322 148.175 42.5749 148.409C42.2652 148.69 41.9237 148.874 41.5505 148.96C41.173 149.042 40.8004 149.024 40.4326 148.906C40.0605 148.783 39.7318 148.565 39.4464 148.25C39.1524 147.926 38.9649 147.566 38.8839 147.171C38.8029 146.775 38.8333 146.382 38.9752 145.993C39.1128 145.599 39.3555 145.244 39.7034 144.928C40.0941 144.574 40.5144 144.362 40.9641 144.293C41.4187 144.219 41.8841 144.296 42.3604 144.524C42.8415 144.748 43.3177 145.12 43.789 145.639C44.2992 146.201 44.6613 146.763 44.8755 147.325C45.0901 147.877 45.1491 148.397 45.0526 148.885C44.956 149.372 44.71 149.795 44.3145 150.154ZM42.1102 147.566C42.296 147.398 42.4261 147.206 42.5003 146.991C42.5702 146.771 42.5831 146.551 42.5392 146.33C42.4909 146.105 42.3868 145.904 42.2268 145.727C42.0668 145.551 41.8791 145.43 41.6636 145.365C41.4438 145.295 41.2233 145.287 41.0021 145.34C40.7765 145.388 40.5709 145.497 40.385 145.665C40.2039 145.829 40.0787 146.017 40.0092 146.228C39.9398 146.438 39.9292 146.657 39.9775 146.882C40.0262 147.099 40.1327 147.297 40.297 147.478C40.4613 147.659 40.6488 147.785 40.8595 147.854C41.075 147.919 41.2931 147.93 41.5139 147.886C41.7303 147.837 41.9291 147.731 42.1102 147.566Z" fill="white"/>
<path d="M4.02314 101.647L4.1147 99.5835L4.1584 99.4695L4.29744 96.3359L4.24923 96.3337L1.9328 99.3321L1.86314 98.9426L6.18277 99.1343L6.14041 100.089L1.09763 99.8651L1.14212 98.8623L4.24548 94.8941L5.46038 94.948L5.1609 101.697L4.02314 101.647ZM9.02725 101.975C8.603 101.956 8.22059 101.865 7.88004 101.702C7.53949 101.539 7.25964 101.314 7.0405 101.027C6.82778 100.741 6.68455 100.412 6.61082 100.042L7.70764 99.9265C7.7968 100.24 7.95659 100.485 8.18701 100.663C8.42386 100.841 8.71263 100.937 9.05331 100.952C9.32329 100.964 9.55698 100.923 9.75438 100.829C9.95179 100.735 10.1062 100.593 10.2176 100.405C10.3293 100.21 10.3911 99.978 10.4031 99.708C10.4148 99.4444 10.3766 99.2173 10.2884 99.0266C10.207 98.8298 10.0786 98.676 9.90313 98.5651C9.72771 98.4543 9.51144 98.3932 9.25432 98.3818C8.99077 98.3701 8.75372 98.4143 8.54318 98.5144C8.33292 98.6082 8.15573 98.7549 8.01161 98.9546L6.95099 98.9075L7.45123 95.0363L11.5009 95.216L11.4572 96.1995L7.92826 96.0429L8.41119 95.6103L8.09639 97.9149L8.1446 97.9171C8.30628 97.7568 8.50804 97.6369 8.74987 97.5575C8.9917 97.4781 9.25725 97.4448 9.54651 97.4576C9.9579 97.4759 10.317 97.5852 10.6237 97.7856C10.9371 97.9798 11.173 98.2511 11.3314 98.5995C11.4963 98.9482 11.569 99.3411 11.5496 99.7782C11.5294 100.235 11.4118 100.635 11.1968 100.98C10.9822 101.318 10.6874 101.576 10.3124 101.752C9.93773 101.922 9.50935 101.997 9.02725 101.975Z" fill="white"/>
<path d="M16.5231 38.8855L19.8782 35.7897L18.9815 34.8179L19.7121 34.1437L20.3666 34.8531C20.4626 34.9571 20.5606 35.0111 20.6606 35.0151C20.7606 35.0192 20.865 34.971 20.9738 34.8706L21.5342 34.3536L22.2541 35.1338L17.2889 39.7154L16.5231 38.8855ZM18.0193 40.5069L18.8137 39.7739L21.6379 40.0308C22.1463 40.0694 22.5751 40.0502 22.9243 39.9732C23.2825 39.8965 23.568 39.76 23.7808 39.5636C24.0078 39.3542 24.1195 39.1242 24.1159 38.8736C24.1167 38.6277 24.0036 38.3819 23.7767 38.136C23.5498 37.8901 23.3004 37.7525 23.0283 37.7234C22.7654 37.6946 22.4735 37.7626 22.1527 37.9273L21.5528 37.0494C22.0755 36.7334 22.5996 36.6088 23.1251 36.6754C23.655 36.7468 24.1294 37.0095 24.5482 37.4635C24.8406 37.7803 25.0366 38.116 25.1361 38.4706C25.2448 38.8256 25.2539 39.1675 25.1632 39.4962C25.077 39.8297 24.8944 40.1252 24.6154 40.3826C24.3033 40.6706 23.9084 40.8642 23.4309 40.9634C22.9533 41.0626 22.3607 41.0798 21.653 41.0149L19.8216 40.8662L19.7862 40.8989L21.9068 43.1971L21.1478 43.8974L18.0193 40.5069Z" fill="white"/>
<path d="M70.0181 1.22877L71.0984 1.26765L72.9228 3.43872C73.2566 3.82417 73.5746 4.11247 73.8768 4.30362C74.1852 4.50144 74.484 4.60556 74.7734 4.61597C75.082 4.62708 75.3233 4.54241 75.4972 4.36195C75.6709 4.18792 75.7637 3.93373 75.7758 3.59936C75.7878 3.26499 75.7075 2.99168 75.5348 2.77943C75.3684 2.57385 75.1133 2.41658 74.7696 2.30763L74.9617 1.26185C75.5553 1.40555 76.0152 1.68608 76.3415 2.10345C76.6674 2.52725 76.8193 3.0478 76.7971 3.66509C76.7816 4.09592 76.6844 4.47229 76.5054 4.79421C76.3326 5.12279 76.0983 5.3719 75.8024 5.54153C75.5063 5.71759 75.1686 5.79879 74.7892 5.78513C74.3649 5.76986 73.9482 5.62931 73.5393 5.36349C73.1303 5.09767 72.6974 4.69255 72.2406 4.14815L71.0449 2.75303L70.9967 2.75129L70.8842 5.87636L69.8522 5.83921L70.0181 1.22877ZM69.636 8.89241C69.6525 8.43587 69.7409 8.03665 69.9013 7.69474C70.0617 7.35283 70.294 7.06824 70.5984 6.84098C70.9025 6.62014 71.2686 6.46591 71.6967 6.37831L71.8129 7.44484C71.4295 7.5405 71.1435 7.70726 70.9546 7.94513C70.772 8.18965 70.6736 8.50804 70.6595 8.90028C70.6498 9.17035 70.6801 9.40001 70.7506 9.58926C70.821 9.77851 70.9285 9.92403 71.0729 10.0258C71.2237 10.1278 71.4085 10.1827 71.6271 10.1906C71.8393 10.1983 72.0243 10.1566 72.1821 10.0657C72.3399 9.97483 72.4606 9.84075 72.5442 9.66348C72.6343 9.48644 72.6839 9.27254 72.6929 9.02176L72.7224 8.20191L73.6966 8.23698L73.6681 9.02789C73.6602 9.24652 73.692 9.4376 73.7634 9.60113C73.8345 9.77109 73.9424 9.90374 74.0871 9.99909C74.2317 10.0944 74.4005 10.1456 74.5934 10.1525C74.7927 10.1597 74.9648 10.1208 75.1095 10.0359C75.2606 9.95119 75.3778 9.82664 75.4609 9.66223C75.5441 9.49783 75.5899 9.29988 75.5982 9.06839C75.6105 8.72759 75.5341 8.43511 75.369 8.19094C75.204 7.94678 74.9559 7.77367 74.6248 7.67161L74.8166 6.63547C75.4028 6.80466 75.8523 7.10735 76.165 7.54355C76.4774 7.98618 76.6225 8.51614 76.6003 9.13344C76.5848 9.56426 76.4938 9.94408 76.3275 10.2729C76.1609 10.6081 75.936 10.864 75.6528 11.0405C75.3693 11.2235 75.0508 11.3086 74.6971 11.2959C74.3177 11.2822 73.9875 11.1544 73.7065 10.9125C73.4252 10.6771 73.2309 10.3514 73.1236 9.93544L73.2679 9.95029C73.1355 10.4091 72.9137 10.7584 72.6024 10.9983C72.291 11.2447 71.9134 11.3599 71.4697 11.3439C71.0839 11.33 70.7467 11.2181 70.4581 11.0081C70.1756 10.8048 69.9638 10.5203 69.8224 10.1546C69.681 9.78899 69.6189 9.36825 69.636 8.89241Z" fill="white"/>
</svg>
