<svg width="114" height="117" viewBox="0 0 114 117" fill="none" xmlns="http://www.w3.org/2000/svg">
<path d="M53.623 0C63.9407 0 72.8054 1.81622 80.2168 5.44922C87.628 9.08218 93.2951 14.1687 97.2188 20.708C101.142 27.2474 103.104 35.0223 103.104 44.0322V81.3066C103.105 84.0677 103.613 86.0298 104.63 87.1924C105.647 88.355 107.32 88.9355 109.645 88.9355H113.35V113.786C111.897 114.076 110.152 114.293 108.118 114.439C106.083 114.729 104.121 114.876 102.232 114.876C93.9495 114.876 87.7005 112.84 83.4863 108.771C79.5334 104.819 77.4345 99.5872 77.1895 93.0771H76.293C72.3694 100.633 67.0654 106.447 60.3809 110.516C53.8416 114.44 46.2846 116.401 37.7109 116.401C30.7355 116.401 24.3411 115.021 18.5283 112.26C12.7157 109.499 8.13823 105.575 4.7959 100.489C1.59892 95.4031 6.58964e-05 89.59 0 83.0508C0 75.9301 1.88965 69.6805 5.66797 64.3037C9.44626 58.7817 14.6053 54.5674 21.1445 51.6611C27.8291 48.6095 35.531 47.084 44.25 47.084H72.5869V44.6855C72.5869 40.4714 71.7879 36.9112 70.1895 34.0049C68.7363 30.9533 66.4842 28.7003 63.4326 27.2471C60.5262 25.6486 56.9653 24.8496 52.751 24.8496C47.3742 24.8496 42.7969 26.0853 39.0186 28.5557C35.2403 30.8807 32.4068 34.4408 30.5176 39.2363L3.26953 35.5303C6.17596 24.4861 11.9164 15.8395 20.4902 9.59082C29.2094 3.19684 40.2538 2.4327e-06 53.623 0ZM49.0459 65.8301C45.7037 65.8301 42.6515 66.3384 39.8906 67.3555C37.2748 68.2274 35.1679 69.6813 33.5693 71.7158C31.9709 73.6049 31.171 75.9295 31.1709 78.6904C31.1709 82.4687 32.6249 85.4481 35.5312 87.6279C38.4375 89.8075 42.2154 90.8974 46.8652 90.8975C51.6608 90.8975 56.0207 89.8802 59.9443 87.8457C63.868 85.8113 66.9198 83.0502 69.0996 79.5625C71.4247 75.9295 72.5869 71.788 72.5869 67.1377V65.8301H49.0459Z" fill="black"/>
</svg>
