<svg width="170" height="114" viewBox="0 0 170 114" fill="none" xmlns="http://www.w3.org/2000/svg">
<path d="M0 113.786V2.61575H29.4273V20.4901H30.5172C34.2955 14.0961 39.2364 9.0825 45.3398 5.4495C51.4433 1.8165 57.91 0 64.74 0C72.006 0 78.4001 1.96182 83.9223 5.88546C89.5897 9.8091 93.5134 14.968 95.6932 21.3621H96.7831C101.434 14.532 106.883 9.30048 113.132 5.66748C119.526 1.88916 126.501 0 134.058 0C141.324 0 147.645 1.74384 153.022 5.23152C158.399 8.57388 162.541 13.3695 165.447 19.6182C168.354 25.867 169.807 33.2783 169.807 41.8522V113.786H137.764V49.0455C137.764 41.7795 136.456 36.33 133.84 32.697C131.224 28.9187 127.301 27.0295 122.069 27.0295C118 27.0295 114.295 28.1921 110.952 30.5172C107.755 32.697 105.285 35.7487 103.541 39.6724C101.797 43.596 100.925 48.0283 100.925 52.9691V113.786H68.8816V49.0455C68.8816 41.7795 67.5011 36.33 64.74 32.697C62.1243 28.9187 58.2733 27.0295 53.1871 27.0295C49.1181 27.0295 45.4125 28.1921 42.0701 30.5172C38.8731 32.697 36.33 35.7487 34.4408 39.6724C32.697 43.596 31.8251 48.0283 31.8251 52.9691V113.786H0Z" fill="black"/>
</svg>
