<svg width="78" height="19" viewBox="0 0 78 19" fill="none" xmlns="http://www.w3.org/2000/svg">
<path d="M5.7002 5.02344C6.78617 5.02347 7.7195 5.228 8.50098 5.63672C9.28188 6.04548 9.87453 6.61316 10.2783 7.33887C10.6814 8.06451 10.8828 8.92009 10.8828 9.9043V14.8604C10.8829 15.1603 10.941 15.3821 11.0557 15.5234C11.1704 15.6652 11.3597 15.7354 11.623 15.7354H12.0918V17.9131C11.9436 17.9292 11.7788 17.9425 11.5977 17.9512C11.4167 17.9592 11.2274 17.9639 11.0303 17.9639C10.2409 17.9638 9.64007 17.7552 9.22949 17.3379C8.8183 16.9211 8.61235 16.3456 8.6123 15.6113V15.5361H8.48828C8.01071 16.4037 7.39896 17.0628 6.65039 17.5137C5.90183 17.9639 5.05878 18.1884 4.12109 18.1885V18.1875C3.34769 18.1875 2.64862 18.0329 2.02344 17.7246C1.3983 17.4163 0.904547 16.978 0.542969 16.4111C0.18075 15.8442 0 15.1847 0 14.4336C3.27539e-05 13.6162 0.200762 12.8984 0.604492 12.2812C1.00764 11.6641 1.57576 11.1845 2.30762 10.8428C3.03954 10.501 3.87464 10.3291 4.8125 10.3291H8.16797V9.92871C8.16797 9.37806 8.07287 8.91123 7.88379 8.52734C7.69462 8.14343 7.41055 7.85109 7.03223 7.65137C6.65389 7.45103 6.19308 7.3506 5.65039 7.35059C4.92675 7.35059 4.3219 7.5094 3.83691 7.82617C3.35124 8.14313 3.00208 8.62765 2.78809 9.27832L0.369141 8.92773C0.697886 7.71014 1.31109 6.75375 2.20801 6.06152C3.10426 5.36949 4.2688 5.02344 5.7002 5.02344ZM54.3867 12.7812C54.3867 13.716 54.5881 14.4377 54.9912 14.9463C55.3944 15.4555 55.9578 15.71 56.6816 15.71C57.2572 15.71 57.7761 15.556 58.2363 15.2471C58.6964 14.9389 59.063 14.5178 59.334 13.9834C59.6057 13.4493 59.7412 12.865 59.7412 12.2305V5.29785H62.5293V17.9121H59.9629V15.6846H59.8398C59.3133 16.502 58.7046 17.1243 58.0137 17.5498C57.3228 17.9752 56.5578 18.1865 55.7188 18.1865C54.8799 18.1864 54.1521 17.9909 53.5352 17.5996C52.9182 17.2076 52.4409 16.6398 52.1035 15.8975C51.7662 15.1551 51.5977 14.2918 51.5977 13.3076V5.29785H54.3867V12.7812ZM69.1689 5.29785H72.7471V7.55078H69.1689V14.0576C69.1689 14.542 69.2676 14.8929 69.4648 15.1094C69.662 15.3264 69.9745 15.4355 70.4023 15.4355H72.8701V17.9131H69.6621V17.9121C68.576 17.9121 67.7575 17.6081 67.2061 16.999C66.6547 16.3899 66.3799 15.5009 66.3799 14.333V7.55078H63.9609V5.29785H66.4297L67.5156 1.94434H69.1689V5.29785ZM22.9004 7.80078L16.3359 15.3594V15.4844H23.1963V17.9121H13.0039V15.3848L19.5684 7.85059V7.72559H13.251V5.29785H22.9004V7.80078ZM28.0088 17.9121H25.2695V5.29785H28.0088V17.9121ZM45.1602 5.02246C45.9658 5.0225 46.6695 5.21071 47.2705 5.58594C47.8707 5.9612 48.3271 6.51179 48.6396 7.2373C48.9523 7.96302 49.1084 8.81837 49.1084 9.80273V17.9121H46.3203V10.3037C46.3203 9.36958 46.1426 8.66022 45.7891 8.17578C45.4349 7.69209 44.9136 7.4502 44.2227 7.4502C43.6961 7.4502 43.2147 7.59621 42.7793 7.8877C42.3433 8.17983 42.0017 8.5849 41.7549 9.10156C41.508 9.61887 41.3848 10.2032 41.3848 10.8545V17.9121H38.5957V10.3037C38.5957 9.36958 38.419 8.66022 38.0654 8.17578C37.7113 7.69208 37.1899 7.4502 36.499 7.4502C35.9725 7.4502 35.4911 7.59622 35.0557 7.8877C34.6196 8.17983 34.2781 8.5849 34.0312 9.10156C33.7844 9.61887 33.6611 10.2032 33.6611 10.8545V17.9121H30.8711V5.29785H33.4619V7.375H33.5859C34.0133 6.62392 34.5687 6.04448 35.251 5.63574C35.9331 5.22706 36.6613 5.02254 37.4346 5.02246C38.208 5.02246 38.9485 5.24733 39.5576 5.69824C40.1661 6.14856 40.6026 6.76675 40.8662 7.55078H40.9893C41.5159 6.71651 42.1244 6.08566 42.8154 5.66016C43.5064 5.23475 44.2875 5.02246 45.1602 5.02246ZM5.1582 12.2568C4.68061 12.2568 4.26103 12.3283 3.89941 12.4697C3.53729 12.6117 3.25377 12.8241 3.04785 13.1074C2.84192 13.3915 2.73926 13.7337 2.73926 14.1338C2.73931 14.6677 2.92467 15.0806 3.29492 15.3721C3.6652 15.6641 4.1543 15.8105 4.7627 15.8105C5.37106 15.8105 5.95969 15.6728 6.47754 15.3975C6.99547 15.1221 7.40736 14.7293 7.71191 14.2207C8.01567 13.7122 8.16797 13.1319 8.16797 12.4814V12.2568H5.1582ZM74.5771 0C76.3962 0.000202137 77.8769 1.4788 77.877 3.29785C77.877 5.11712 76.3964 6.59766 74.5771 6.59766C74.5159 6.59765 74.4498 6.59514 74.375 6.59082L74.1992 6.58008V5.3418L74.4014 5.35938C74.4652 5.36495 74.5226 5.36719 74.5771 5.36719C75.7176 5.36699 76.6454 4.43931 76.6455 3.29883C76.6455 2.15827 75.7177 1.23067 74.5771 1.23047C73.4365 1.23047 72.5078 2.15814 72.5078 3.29883C72.5078 3.46488 72.5287 3.63089 72.5684 3.79199L72.625 4.02344H71.3555L71.3281 3.86914C71.2946 3.67999 71.2773 3.48798 71.2773 3.29883C71.2776 1.47977 72.758 0 74.5771 0ZM28.0332 3.2207H25.2695V0.592773H28.0332V3.2207Z" fill="white"/>
</svg>
