<svg width="147" height="147" viewBox="0 0 147 147" fill="none" xmlns="http://www.w3.org/2000/svg">
<g clip-path="url(#clip0_1240_2224)">
<line x1="68.9809" y1="1.58696" x2="1.66188" y2="93.5039" stroke="#F099FD" stroke-width="0.636454"/>
<line x1="72.0355" y1="3.87761" x2="4.71657" y2="95.7946" stroke="#F099FD" stroke-width="0.636454"/>
<line x1="75.0902" y1="6.16825" x2="7.77126" y2="98.0852" stroke="#F099FD" stroke-width="0.636454"/>
<line x1="78.1449" y1="8.4589" x2="10.8259" y2="100.376" stroke="#F099FD" stroke-width="0.636454"/>
<line x1="81.2035" y1="10.7496" x2="13.8845" y2="102.667" stroke="#F099FD" stroke-width="0.636454"/>
<line x1="84.2582" y1="13.0402" x2="16.9392" y2="104.957" stroke="#F099FD" stroke-width="0.636454"/>
<line x1="87.3129" y1="15.3309" x2="19.9939" y2="107.248" stroke="#F099FD" stroke-width="0.636454"/>
<line x1="90.3676" y1="17.6215" x2="23.0486" y2="109.538" stroke="#F099FD" stroke-width="0.636454"/>
<line x1="93.4223" y1="19.9122" x2="26.1033" y2="111.829" stroke="#F099FD" stroke-width="0.636454"/>
<line x1="96.4809" y1="22.2028" x2="29.1619" y2="114.12" stroke="#F099FD" stroke-width="0.636454"/>
<line x1="99.5316" y1="24.4935" x2="32.2127" y2="116.41" stroke="#F099FD" stroke-width="0.636454"/>
<line x1="102.586" y1="26.784" x2="35.2674" y2="118.701" stroke="#F099FD" stroke-width="0.636454"/>
<line x1="105.645" y1="29.0746" x2="38.3259" y2="120.992" stroke="#F099FD" stroke-width="0.636454"/>
<line x1="108.7" y1="31.3654" x2="41.3806" y2="123.282" stroke="#F099FD" stroke-width="0.636454"/>
<line x1="111.754" y1="33.6559" x2="44.4353" y2="125.573" stroke="#F099FD" stroke-width="0.636454"/>
<line x1="114.809" y1="35.9466" x2="47.49" y2="127.864" stroke="#F099FD" stroke-width="0.636454"/>
<line x1="117.864" y1="38.2372" x2="50.5447" y2="130.154" stroke="#F099FD" stroke-width="0.636454"/>
<line x1="120.922" y1="40.5279" x2="53.6033" y2="132.445" stroke="#F099FD" stroke-width="0.636454"/>
<line x1="123.977" y1="42.8185" x2="56.658" y2="134.735" stroke="#F099FD" stroke-width="0.636454"/>
<line x1="127.032" y1="45.1092" x2="59.7127" y2="137.026" stroke="#F099FD" stroke-width="0.636454"/>
<line x1="130.086" y1="47.3998" x2="62.7674" y2="139.317" stroke="#F099FD" stroke-width="0.636454"/>
<line x1="133.141" y1="49.6905" x2="65.822" y2="141.607" stroke="#F099FD" stroke-width="0.636454"/>
<line x1="136.2" y1="51.9811" x2="68.8806" y2="143.898" stroke="#F099FD" stroke-width="0.636454"/>
<line x1="139.254" y1="54.2716" x2="71.9353" y2="146.189" stroke="#F099FD" stroke-width="0.636454"/>
<line x1="142.309" y1="56.5624" x2="74.99" y2="148.479" stroke="#F099FD" stroke-width="0.636454"/>
<line x1="145.364" y1="58.8531" x2="78.0447" y2="150.77" stroke="#F099FD" stroke-width="0.636454"/>
</g>
<rect x="62.6746" y="0.445505" width="103.742" height="103.742" rx="51.871" transform="rotate(36.8588 62.6746 0.445505)" stroke="#EF44FF" stroke-width="0.636454" stroke-dasharray="3.82 3.82"/>
<defs>
<clipPath id="clip0_1240_2224">
<rect x="62.6108" width="104.378" height="104.378" rx="52.1892" transform="rotate(36.8588 62.6108 0)" fill="white"/>
</clipPath>
</defs>
</svg>
