<svg width="300" height="236" viewBox="0 0 300 236" fill="none" xmlns="http://www.w3.org/2000/svg">
<path d="M0 12.6548C0 5.66574 5.66575 0 12.6548 0H287.345C294.334 0 300 5.66575 300 12.6548V223.345C300 230.334 294.334 236 287.345 236H12.6548C5.66574 236 0 230.334 0 223.345V12.6548Z" fill="#F6F6F6"/>
<path d="M21.696 31.18C20.532 31.18 19.5 30.91 18.6 30.37C17.712 29.83 17.022 29.074 16.53 28.102C16.05 27.118 15.81 25.984 15.81 24.7C15.81 23.428 16.05 22.3 16.53 21.316C17.022 20.332 17.712 19.57 18.6 19.03C19.488 18.49 20.508 18.22 21.66 18.22C22.5 18.22 23.262 18.37 23.946 18.67C24.642 18.97 25.236 19.408 25.728 19.984C26.232 20.56 26.616 21.262 26.88 22.09L25.422 22.342C25.134 21.478 24.666 20.818 24.018 20.362C23.37 19.894 22.584 19.66 21.66 19.66C20.796 19.66 20.046 19.864 19.41 20.272C18.774 20.668 18.282 21.25 17.934 22.018C17.598 22.774 17.43 23.668 17.43 24.7C17.43 25.732 17.598 26.632 17.934 27.4C18.282 28.156 18.774 28.738 19.41 29.146C20.058 29.542 20.82 29.74 21.696 29.74C22.644 29.74 23.442 29.512 24.09 29.056C24.75 28.588 25.224 27.922 25.512 27.058L26.97 27.31C26.706 28.138 26.322 28.84 25.818 29.416C25.314 29.992 24.714 30.43 24.018 30.73C23.322 31.03 22.548 31.18 21.696 31.18ZM28.4135 31V18.4H29.9975V28.57H30.0875L36.2075 18.4H38.0435V31H36.4595V20.83H36.3695L30.2495 31H28.4135ZM45.5418 31.18C44.3778 31.18 43.3458 30.91 42.4458 30.37C41.5578 29.83 40.8678 29.074 40.3758 28.102C39.8958 27.118 39.6558 25.984 39.6558 24.7C39.6558 23.428 39.8958 22.3 40.3758 21.316C40.8678 20.332 41.5578 19.57 42.4458 19.03C43.3338 18.49 44.3538 18.22 45.5058 18.22C46.3458 18.22 47.1078 18.37 47.7918 18.67C48.4878 18.97 49.0818 19.408 49.5738 19.984C50.0778 20.56 50.4618 21.262 50.7258 22.09L49.2678 22.342C48.9798 21.478 48.5118 20.818 47.8638 20.362C47.2158 19.894 46.4298 19.66 45.5058 19.66C44.6418 19.66 43.8918 19.864 43.2558 20.272C42.6198 20.668 42.1278 21.25 41.7798 22.018C41.4438 22.774 41.2758 23.668 41.2758 24.7C41.2758 25.732 41.4438 26.632 41.7798 27.4C42.1278 28.156 42.6198 28.738 43.2558 29.146C43.9038 29.542 44.6658 29.74 45.5418 29.74C46.4898 29.74 47.2878 29.512 47.9358 29.056C48.5958 28.588 49.0698 27.922 49.3578 27.058L50.8158 27.31C50.5518 28.138 50.1678 28.84 49.6638 29.416C49.1598 29.992 48.5598 30.43 47.8638 30.73C47.1678 31.03 46.3938 31.18 45.5418 31.18ZM54.9677 31V19.84H50.7377V18.4H60.8177V19.84H56.5877V31H54.9677ZM61.8091 31V18.4H69.5491V19.84H63.4291V29.56H69.6391V31H61.8091ZM62.7991 25.33V23.89H68.9191V25.33H62.7991ZM71.4469 31V18.4H73.7869L77.9269 29.236H78.0169L82.1569 18.4H84.4069V31H82.8229V20.668H82.7329L78.7729 31H77.0809L73.1209 20.668H73.0309V31H71.4469ZM94.399 31V18.4H96.019V31H94.399ZM86.569 31V18.4H88.189V31H86.569ZM87.415 25.33V23.89H95.155V25.33H87.415ZM98.1755 31V18.4H99.7955V23.53V23.71V29.56H102.135C102.711 29.56 103.197 29.464 103.593 29.272C104.001 29.068 104.307 28.774 104.511 28.39C104.727 28.006 104.835 27.544 104.835 27.004C104.835 26.176 104.601 25.54 104.133 25.096C103.665 24.652 102.999 24.43 102.135 24.43H99.3455V22.99H102.225C103.053 22.99 103.785 23.158 104.421 23.494C105.069 23.83 105.567 24.304 105.915 24.916C106.275 25.516 106.455 26.212 106.455 27.004C106.455 27.784 106.275 28.48 105.915 29.092C105.567 29.692 105.069 30.16 104.421 30.496C103.785 30.832 103.053 31 102.225 31H98.1755ZM108.525 31V18.4H110.145V31H108.525ZM112.313 31V18.4H113.897V28.57H113.987L120.107 18.4H121.943V31H120.359V20.83H120.269L114.149 31H112.313ZM117.137 17.32C116.285 17.32 115.589 17.092 115.049 16.636C114.521 16.168 114.257 15.556 114.257 14.8H115.481C115.481 15.22 115.625 15.556 115.913 15.808C116.213 16.06 116.621 16.186 117.137 16.186C117.653 16.186 118.055 16.06 118.343 15.808C118.643 15.556 118.793 15.22 118.793 14.8H120.017C120.017 15.556 119.747 16.168 119.207 16.636C118.679 17.092 117.989 17.32 117.137 17.32ZM132.96 31.18C131.82 31.18 130.806 30.91 129.918 30.37C129.042 29.83 128.364 29.068 127.884 28.084C127.404 27.1 127.164 25.972 127.164 24.7C127.164 23.428 127.404 22.3 127.884 21.316C128.364 20.332 129.042 19.57 129.918 19.03C130.806 18.49 131.82 18.22 132.96 18.22C134.112 18.22 135.126 18.49 136.002 19.03C136.878 19.57 137.556 20.332 138.036 21.316C138.528 22.3 138.774 23.428 138.774 24.7C138.774 25.972 138.528 27.1 138.036 28.084C137.556 29.068 136.878 29.83 136.002 30.37C135.126 30.91 134.112 31.18 132.96 31.18ZM132.96 29.74C133.824 29.74 134.568 29.536 135.192 29.128C135.828 28.72 136.314 28.138 136.65 27.382C136.986 26.626 137.154 25.732 137.154 24.7C137.154 23.668 136.986 22.774 136.65 22.018C136.314 21.262 135.828 20.68 135.192 20.272C134.568 19.864 133.824 19.66 132.96 19.66C132.108 19.66 131.364 19.864 130.728 20.272C130.104 20.68 129.624 21.268 129.288 22.036C128.952 22.792 128.784 23.68 128.784 24.7C128.784 25.72 128.952 26.614 129.288 27.382C129.624 28.138 130.104 28.72 130.728 29.128C131.364 29.536 132.108 29.74 132.96 29.74ZM142.915 31V19.84H138.685V18.4H148.765V19.84H144.535V31H142.915ZM153.663 26.77C152.811 26.77 152.061 26.602 151.413 26.266C150.777 25.93 150.279 25.444 149.919 24.808C149.571 24.172 149.397 23.416 149.397 22.54V18.4H151.017V22.54C151.017 23.44 151.263 24.13 151.755 24.61C152.259 25.09 152.955 25.33 153.843 25.33C154.395 25.33 154.935 25.24 155.463 25.06C156.003 24.88 156.483 24.622 156.903 24.286V25.726C156.435 26.074 155.925 26.338 155.373 26.518C154.833 26.686 154.263 26.77 153.663 26.77ZM156.687 31V18.4H158.307V31H156.687ZM160.467 31V18.4H168.207V19.84H162.087V29.56H168.297V31H160.467ZM161.457 25.33V23.89H167.577V25.33H161.457ZM172.989 31V19.84H168.759V18.4H178.839V19.84H174.609V31H172.989Z" fill="#636363"/>
<path d="M255.86 31.18C255.08 31.18 254.39 31.048 253.79 30.784C253.19 30.52 252.686 30.13 252.278 29.614C251.87 29.086 251.564 28.438 251.36 27.67L252.8 27.418C253.028 28.222 253.388 28.81 253.88 29.182C254.384 29.554 255.044 29.74 255.86 29.74C256.424 29.74 256.898 29.656 257.282 29.488C257.678 29.32 257.972 29.074 258.164 28.75C258.368 28.414 258.47 28.006 258.47 27.526C258.47 27.058 258.368 26.656 258.164 26.32C257.972 25.984 257.69 25.732 257.318 25.564C256.946 25.384 256.496 25.294 255.968 25.294H254.42V23.854H255.914C256.382 23.854 256.784 23.77 257.12 23.602C257.468 23.434 257.732 23.194 257.912 22.882C258.104 22.558 258.2 22.186 258.2 21.766C258.2 21.334 258.104 20.962 257.912 20.65C257.732 20.326 257.462 20.08 257.102 19.912C256.754 19.744 256.34 19.66 255.86 19.66C255.152 19.66 254.552 19.846 254.06 20.218C253.58 20.578 253.25 21.106 253.07 21.802L251.63 21.55C251.894 20.494 252.398 19.678 253.142 19.102C253.886 18.514 254.792 18.22 255.86 18.22C256.628 18.22 257.312 18.364 257.912 18.652C258.512 18.94 258.98 19.342 259.316 19.858C259.652 20.362 259.82 20.938 259.82 21.586C259.82 22.306 259.604 22.936 259.172 23.476C258.752 24.016 258.158 24.406 257.39 24.646V24.376C258.254 24.592 258.92 24.982 259.388 25.546C259.856 26.11 260.09 26.806 260.09 27.634C260.09 28.342 259.916 28.966 259.568 29.506C259.22 30.046 258.722 30.46 258.074 30.748C257.438 31.036 256.7 31.18 255.86 31.18ZM261.254 31V29.02H263.234V31H261.254ZM265.613 31V22.09H263.147V20.65H264.893C265.169 20.65 265.373 20.584 265.505 20.452C265.637 20.32 265.703 20.116 265.703 19.84V18.4H267.197V31H265.613ZM270.171 31L274.689 19.93V19.84H268.371V18.4H276.291V19.93L271.809 31H270.171ZM279.733 31L276.475 22H278.077L280.687 29.614H280.777L283.387 22H284.935L281.677 31H279.733Z" fill="#636363"/>
<circle cx="24.5" cy="139.5" r="5" transform="rotate(180 24.5 139.5)" fill="#B7E1FF"/>
<circle cx="38.5" cy="126.5" r="5" transform="rotate(180 38.5 126.5)" fill="#EBEBEB"/>
<circle cx="38.5" cy="139.5" r="5" transform="rotate(180 38.5 139.5)" fill="#B7E1FF"/>
<circle cx="38.5" cy="152.5" r="5" transform="rotate(180 38.5 152.5)" fill="#EBEBEB"/>
<circle cx="52.5" cy="107" r="5" transform="rotate(180 52.5 107)" fill="#EBEBEB"/>
<circle cx="52.5" cy="120" r="5" transform="rotate(180 52.5 120)" fill="#EBEBEB"/>
<circle cx="52.5" cy="133" r="5" transform="rotate(180 52.5 133)" fill="#B7E1FF"/>
<circle cx="52.5" cy="146" r="5" transform="rotate(180 52.5 146)" fill="#EBEBEB"/>
<circle cx="52.5" cy="159" r="5" transform="rotate(180 52.5 159)" fill="#EBEBEB"/>
<circle cx="52.5" cy="172" r="5" transform="rotate(180 52.5 172)" fill="#EBEBEB"/>
<circle cx="66.5" cy="126.5" r="5" transform="rotate(180 66.5 126.5)" fill="#EBEBEB"/>
<circle cx="66.5" cy="139.5" r="5" transform="rotate(180 66.5 139.5)" fill="#B7E1FF"/>
<circle cx="66.5" cy="152.5" r="5" transform="rotate(180 66.5 152.5)" fill="#B7E1FF"/>
<circle cx="80.5" cy="126.5" r="5" transform="rotate(180 80.5 126.5)" fill="#EBEBEB"/>
<circle cx="80.5" cy="139.5" r="5" transform="rotate(180 80.5 139.5)" fill="#B7E1FF"/>
<circle cx="80.5" cy="152.5" r="5" transform="rotate(180 80.5 152.5)" fill="#EBEBEB"/>
<circle cx="94.5" cy="120" r="5" transform="rotate(180 94.5 120)" fill="#EBEBEB"/>
<circle cx="94.5" cy="133" r="5" transform="rotate(180 94.5 133)" fill="#B7E1FF"/>
<circle cx="94.5" cy="146" r="5" transform="rotate(180 94.5 146)" fill="#B7E1FF"/>
<circle cx="94.5" cy="159" r="5" transform="rotate(180 94.5 159)" fill="#EBEBEB"/>
<circle cx="108.5" cy="126.5" r="5" transform="rotate(180 108.5 126.5)" fill="#EBEBEB"/>
<circle cx="108.5" cy="139.5" r="5" transform="rotate(180 108.5 139.5)" fill="#B7E1FF"/>
<circle cx="108.5" cy="152.5" r="5" transform="rotate(180 108.5 152.5)" fill="#EBEBEB"/>
<circle cx="122.5" cy="113.5" r="5" transform="rotate(180 122.5 113.5)" fill="#EBEBEB"/>
<circle cx="122.5" cy="126.5" r="5" transform="rotate(180 122.5 126.5)" fill="#EBEBEB"/>
<circle cx="122.5" cy="139.5" r="5" transform="rotate(180 122.5 139.5)" fill="#B7E1FF"/>
<circle cx="122.5" cy="152.5" r="5" transform="rotate(180 122.5 152.5)" fill="#B7E1FF"/>
<circle cx="122.5" cy="165.5" r="5" transform="rotate(180 122.5 165.5)" fill="#EBEBEB"/>
<circle cx="136.5" cy="133" r="5" transform="rotate(180 136.5 133)" fill="#B7E1FF"/>
<circle cx="136.5" cy="146" r="5" transform="rotate(180 136.5 146)" fill="#EBEBEB"/>
<circle cx="150.5" cy="120" r="5" transform="rotate(180 150.5 120)" fill="#EBEBEB"/>
<circle cx="150.5" cy="133" r="5" transform="rotate(180 150.5 133)" fill="#B7E1FF"/>
<circle cx="150.5" cy="146" r="5" transform="rotate(180 150.5 146)" fill="#EBEBEB"/>
<circle cx="150.5" cy="159" r="5" transform="rotate(180 150.5 159)" fill="#EBEBEB"/>
<circle cx="164.5" cy="113.5" r="5" transform="rotate(180 164.5 113.5)" fill="#EBEBEB"/>
<circle cx="164.5" cy="126.5" r="5" transform="rotate(180 164.5 126.5)" fill="#B7E1FF"/>
<circle cx="164.5" cy="139.5" r="5" transform="rotate(180 164.5 139.5)" fill="#EBEBEB"/>
<circle cx="164.5" cy="152.5" r="5" transform="rotate(180 164.5 152.5)" fill="#EBEBEB"/>
<circle cx="164.5" cy="165.5" r="5" transform="rotate(180 164.5 165.5)" fill="#EBEBEB"/>
<circle cx="178.5" cy="107" r="5" transform="rotate(180 178.5 107)" fill="#EBEBEB"/>
<circle cx="178.5" cy="120" r="5" transform="rotate(180 178.5 120)" fill="#B7E1FF"/>
<circle cx="178.5" cy="133" r="5" transform="rotate(180 178.5 133)" fill="#B7E1FF"/>
<circle cx="178.5" cy="146" r="5" transform="rotate(180 178.5 146)" fill="#B7E1FF"/>
<circle cx="178.5" cy="159" r="5" transform="rotate(180 178.5 159)" fill="#EBEBEB"/>
<circle cx="178.5" cy="172" r="5" transform="rotate(180 178.5 172)" fill="#EBEBEB"/>
<circle cx="192.5" cy="126.5" r="5" transform="rotate(180 192.5 126.5)" fill="#EBEBEB"/>
<circle cx="192.5" cy="139.5" r="5" transform="rotate(180 192.5 139.5)" fill="#B7E1FF"/>
<circle cx="192.5" cy="152.5" r="5" transform="rotate(180 192.5 152.5)" fill="#B7E1FF"/>
<circle cx="206.5" cy="120" r="5" transform="rotate(180 206.5 120)" fill="#EBEBEB"/>
<circle cx="206.5" cy="133" r="5" transform="rotate(180 206.5 133)" fill="#EBEBEB"/>
<circle cx="206.5" cy="146" r="5" transform="rotate(180 206.5 146)" fill="#B7E1FF"/>
<circle cx="206.5" cy="159" r="5" transform="rotate(180 206.5 159)" fill="#EBEBEB"/>
<circle cx="220.5" cy="126.5" r="5" transform="rotate(180 220.5 126.5)" fill="#EBEBEB"/>
<circle cx="220.5" cy="139.5" r="5" transform="rotate(180 220.5 139.5)" fill="#B7E1FF"/>
<circle cx="220.5" cy="152.5" r="5" transform="rotate(180 220.5 152.5)" fill="#EBEBEB"/>
<circle cx="234.5" cy="126.5" r="5" transform="rotate(180 234.5 126.5)" fill="#EBEBEB"/>
<circle cx="234.5" cy="139.5" r="5" transform="rotate(180 234.5 139.5)" fill="#B7E1FF"/>
<circle cx="234.5" cy="152.5" r="5" transform="rotate(180 234.5 152.5)" fill="#EBEBEB"/>
<circle cx="248.5" cy="113.5" r="5" transform="rotate(180 248.5 113.5)" fill="#EBEBEB"/>
<circle cx="248.5" cy="126.5" r="5" transform="rotate(180 248.5 126.5)" fill="#B7E1FF"/>
<circle cx="248.5" cy="139.5" r="5" transform="rotate(180 248.5 139.5)" fill="#B7E1FF"/>
<circle cx="248.5" cy="152.5" r="5" transform="rotate(180 248.5 152.5)" fill="#EBEBEB"/>
<circle cx="248.5" cy="165.5" r="5" transform="rotate(180 248.5 165.5)" fill="#EBEBEB"/>
<circle cx="262.5" cy="120" r="5" transform="rotate(180 262.5 120)" fill="#EBEBEB"/>
<circle cx="262.5" cy="133" r="5" transform="rotate(180 262.5 133)" fill="#EBEBEB"/>
<circle cx="262.5" cy="146" r="5" transform="rotate(180 262.5 146)" fill="#B7E1FF"/>
<circle cx="262.5" cy="159" r="5" transform="rotate(180 262.5 159)" fill="#EBEBEB"/>
<circle cx="276.5" cy="139.5" r="5" transform="rotate(180 276.5 139.5)" fill="#B7E1FF"/>
<path d="M15.6676 224V218.437H18.3381C18.6645 218.437 18.9575 218.5 19.2171 218.626C19.4842 218.752 19.6919 218.926 19.8402 219.149C19.9886 219.364 20.0628 219.609 20.0628 219.883C20.0628 220.217 19.9515 220.502 19.729 220.74C19.5138 220.977 19.2134 221.122 18.8277 221.174V220.996C19.2876 221.092 19.6362 221.266 19.8736 221.519C20.111 221.771 20.2297 222.086 20.2297 222.464C20.2297 222.769 20.1555 223.036 20.0071 223.266C19.8588 223.496 19.6474 223.677 19.3729 223.811C19.1058 223.937 18.798 224 18.4494 224H15.6676ZM18.3937 223.165C18.6682 223.165 18.8833 223.095 19.0391 222.954C19.2023 222.813 19.2839 222.617 19.2839 222.364C19.2839 222.112 19.2023 221.916 19.0391 221.775C18.8833 221.626 18.6682 221.552 18.3937 221.552H16.3241V220.773H18.2824C18.5421 220.773 18.7461 220.706 18.8944 220.573C19.0428 220.432 19.117 220.247 19.117 220.017C19.117 219.787 19.0428 219.605 18.8944 219.471C18.7461 219.338 18.5421 219.271 18.2824 219.271H16.6134V223.165H18.3937ZM20.9516 226.225V218.437H21.8418V219.438H21.8974C22.1199 219.074 22.3981 218.8 22.7319 218.615C23.0657 218.422 23.4366 218.325 23.8446 218.325C24.312 218.325 24.7274 218.448 25.0908 218.692C25.4543 218.937 25.7362 219.278 25.9365 219.716C26.1368 220.154 26.2369 220.654 26.2369 221.218C26.2369 221.782 26.1368 222.283 25.9365 222.72C25.7362 223.158 25.4543 223.499 25.0908 223.744C24.7274 223.989 24.312 224.111 23.8446 224.111C23.4366 224.111 23.0657 224.019 22.7319 223.833C22.4055 223.648 22.1459 223.388 21.953 223.054H21.8974V226.225H20.9516ZM23.6555 223.277C23.9967 223.277 24.2897 223.195 24.5345 223.032C24.7793 222.869 24.9647 222.635 25.0908 222.331C25.2244 222.019 25.2911 221.649 25.2911 221.218C25.2911 220.788 25.2244 220.421 25.0908 220.117C24.9647 219.805 24.7793 219.568 24.5345 219.405C24.2897 219.241 23.9967 219.16 23.6555 219.16C23.3068 219.16 22.999 219.245 22.7319 219.416C22.4649 219.586 22.2572 219.827 22.1088 220.139C21.9679 220.451 21.8974 220.81 21.8974 221.218C21.8974 221.626 21.9679 221.986 22.1088 222.298C22.2572 222.609 22.4649 222.85 22.7319 223.021C22.999 223.191 23.3068 223.277 23.6555 223.277ZM29.246 224.111C28.7193 224.111 28.252 223.989 27.844 223.744C27.4434 223.499 27.1318 223.158 26.9093 222.72C26.6868 222.283 26.5755 221.782 26.5755 221.218C26.5755 220.654 26.6831 220.154 26.8982 219.716C27.1207 219.278 27.4286 218.937 27.8217 218.692C28.2223 218.448 28.6785 218.325 29.1903 218.325C29.6873 218.325 30.1287 218.44 30.5144 218.67C30.9076 218.9 31.2117 219.223 31.4269 219.638C31.642 220.054 31.7495 220.525 31.7495 221.051C31.7495 221.192 31.7347 221.341 31.705 221.496H27.1318V220.718H31.0819L30.8594 221.085C30.8594 220.692 30.7889 220.35 30.648 220.061C30.5144 219.772 30.3216 219.549 30.0694 219.393C29.8246 219.238 29.5316 219.16 29.1903 219.16C28.8491 219.16 28.5524 219.245 28.3002 219.416C28.048 219.579 27.8551 219.816 27.7216 220.128C27.5881 220.432 27.5213 220.795 27.5213 221.218C27.5213 221.649 27.5881 222.019 27.7216 222.331C27.8625 222.635 28.0628 222.869 28.3224 223.032C28.5821 223.195 28.8899 223.277 29.246 223.277C29.5872 223.277 29.8876 223.203 30.1473 223.054C30.4069 222.906 30.6035 222.691 30.737 222.409L31.5826 222.553C31.4046 223.043 31.1079 223.425 30.6925 223.7C30.2771 223.974 29.7949 224.111 29.246 224.111ZM32.4215 224V218.437H33.7456L35.5927 223.054H35.6483L37.4954 218.437H38.7639V224H37.8403V219.772H37.7847L36.0823 224H35.1031L33.4007 219.772H33.345V224H32.4215ZM43.1638 224V221.552V221.441V219.271H41.6616C41.4465 219.271 41.2574 219.312 41.0942 219.393C40.9384 219.468 40.816 219.575 40.727 219.716C40.6454 219.85 40.6046 220.009 40.6046 220.195C40.6046 220.469 40.6973 220.692 40.8828 220.862C41.0756 221.025 41.3353 221.107 41.6616 221.107H43.4531V221.886H41.7284H41.6728H41.606C41.2277 221.886 40.8902 221.812 40.5935 221.663C40.3042 221.515 40.0742 221.315 39.9036 221.062C39.7404 220.803 39.6588 220.514 39.6588 220.195C39.6588 219.853 39.7404 219.553 39.9036 219.293C40.0742 219.026 40.3042 218.819 40.5935 218.67C40.8902 218.514 41.2277 218.437 41.606 218.437H44.1096V224H43.1638ZM39.325 224L41.0274 221.574H42.0177L40.4154 224H39.325ZM44.9415 224V222.776H46.1654V224H44.9415ZM44.9415 219.66V218.437H46.1654V219.66H44.9415Z" fill="#D0D0D0"/>
<path d="M50.1127 226.337V215.877H52.3937V216.712H51.0585V225.502H52.3937V226.337H50.1127ZM54.1945 224V218.492H52.6702V217.602H53.7495C53.9201 217.602 54.0462 217.561 54.1278 217.48C54.2094 217.398 54.2502 217.272 54.2502 217.101V216.211H55.1737V224H54.1945ZM59.4264 224V221.608V221.496V217.635H59.3707L56.678 221.508L56.5445 221.163H61.4626V221.997H55.9548V221.107L59.3707 216.211H60.4056V224H59.4264ZM61.9081 222.832V221.608H63.1321V222.832H61.9081ZM61.9081 218.492V217.268H63.1321V218.492H61.9081ZM63.635 224V223.054L66.0384 220.74C66.5057 220.287 66.8507 219.861 67.0732 219.46C67.3032 219.06 67.4181 218.67 67.4181 218.292C67.4181 217.876 67.2995 217.557 67.0621 217.335C66.8247 217.105 66.4798 216.99 66.0273 216.99C65.5822 216.99 65.2298 217.109 64.9702 217.346C64.7106 217.576 64.5251 217.917 64.4139 218.37L63.5237 218.214C63.6721 217.554 63.9614 217.038 64.3916 216.667C64.8219 216.289 65.3671 216.1 66.0273 216.1C66.4946 216.1 66.91 216.193 67.2735 216.378C67.637 216.563 67.9189 216.823 68.1191 217.157C68.3194 217.483 68.4196 217.862 68.4196 218.292C68.4196 218.774 68.2675 219.264 67.9634 219.761C67.6666 220.258 67.203 220.81 66.5725 221.419L64.8701 223.054V223.11H68.6977V224H63.635ZM71.8133 224.111C71.2273 224.111 70.7266 223.97 70.3111 223.688C69.8957 223.407 69.5768 222.987 69.3542 222.431C69.1391 221.875 69.0315 221.192 69.0315 220.384C69.0315 219.494 69.1502 218.726 69.3876 218.08C69.625 217.435 69.9625 216.946 70.4002 216.612C70.8378 216.27 71.3534 216.1 71.9468 216.1C72.5402 216.1 73.0521 216.263 73.4823 216.589C73.9126 216.908 74.2019 217.357 74.3502 217.936L73.4601 218.092C73.3562 217.721 73.1782 217.446 72.926 217.268C72.6738 217.083 72.3659 216.99 72.0024 216.99C71.5945 216.99 71.2458 217.101 70.9565 217.324C70.6672 217.539 70.4373 217.865 70.2666 218.303C70.1034 218.741 70.007 219.286 69.9773 219.939H70.033C70.2407 219.612 70.504 219.364 70.823 219.193C71.142 219.023 71.5091 218.937 71.9246 218.937C72.4067 218.937 72.8407 219.049 73.2264 219.271C73.6196 219.494 73.9274 219.801 74.1499 220.195C74.3725 220.588 74.4838 221.029 74.4838 221.519C74.4838 222.016 74.3688 222.461 74.1388 222.854C73.9089 223.247 73.5899 223.555 73.1819 223.777C72.7813 224 72.3251 224.111 71.8133 224.111ZM71.8133 223.221C72.1323 223.221 72.4178 223.151 72.6701 223.01C72.9297 222.861 73.13 222.657 73.2709 222.398C73.4119 222.138 73.4823 221.845 73.4823 221.519C73.4823 221.192 73.4119 220.903 73.2709 220.651C73.13 220.391 72.9297 220.191 72.6701 220.05C72.4178 219.902 72.1323 219.827 71.8133 219.827C71.4869 219.827 71.1902 219.902 70.9231 220.05C70.6635 220.198 70.4595 220.402 70.3111 220.662C70.1628 220.914 70.0886 221.2 70.0886 221.519C70.0886 221.838 70.1628 222.127 70.3111 222.387C70.4595 222.646 70.6635 222.85 70.9231 222.999C71.1902 223.147 71.4869 223.221 71.8133 223.221ZM75.0436 222.832V221.608H76.2675V222.832H75.0436ZM75.0436 218.492V217.268H76.2675V218.492H75.0436ZM79.886 224.111C79.2925 224.111 78.7733 223.948 78.3282 223.622C77.8831 223.288 77.5382 222.821 77.2934 222.22C77.056 221.611 76.9373 220.907 76.9373 220.106C76.9373 219.304 77.056 218.603 77.2934 218.003C77.5382 217.394 77.8831 216.927 78.3282 216.601C78.7733 216.267 79.2925 216.1 79.886 216.1C80.4794 216.1 80.9987 216.267 81.4437 216.601C81.8888 216.927 82.23 217.394 82.4674 218.003C82.7122 218.603 82.8346 219.304 82.8346 220.106C82.8346 220.907 82.7122 221.611 82.4674 222.22C82.23 222.821 81.8888 223.288 81.4437 223.622C80.9987 223.948 80.4794 224.111 79.886 224.111ZM79.886 223.221C80.294 223.221 80.6426 223.099 80.9319 222.854C81.2286 222.602 81.4512 222.246 81.5995 221.786C81.7553 221.318 81.8332 220.758 81.8332 220.106C81.8332 219.453 81.7553 218.896 81.5995 218.437C81.4512 217.969 81.2286 217.613 80.9319 217.368C80.6426 217.116 80.294 216.99 79.886 216.99C79.478 216.99 79.1256 217.116 78.8289 217.368C78.5396 217.613 78.3171 217.969 78.1613 218.437C78.0129 218.896 77.9388 219.453 77.9388 220.106C77.9388 220.758 78.0129 221.318 78.1613 221.786C78.3171 222.246 78.5396 222.602 78.8289 222.854C79.1256 223.099 79.478 223.221 79.886 223.221ZM85.9292 224.111C85.3358 224.111 84.8239 223.952 84.3937 223.633C83.9634 223.306 83.6741 222.854 83.5258 222.275L84.4159 222.12C84.5198 222.49 84.6978 222.769 84.95 222.954C85.2022 223.132 85.5101 223.221 85.8736 223.221C86.2816 223.221 86.6302 223.114 86.9195 222.898C87.2088 222.676 87.4351 222.346 87.5983 221.908C87.7689 221.47 87.869 220.925 87.8987 220.272H87.843C87.6353 220.599 87.372 220.847 87.053 221.018C86.7341 221.189 86.3669 221.274 85.9515 221.274C85.4693 221.274 85.0316 221.163 84.6385 220.94C84.2528 220.718 83.9486 220.41 83.7261 220.017C83.5035 219.623 83.3923 219.182 83.3923 218.692C83.3923 218.195 83.5072 217.75 83.7372 217.357C83.9672 216.964 84.2824 216.656 84.683 216.434C85.091 216.211 85.5509 216.1 86.0627 216.1C86.6488 216.1 87.1495 216.241 87.5649 216.523C87.9803 216.805 88.2955 217.224 88.5107 217.78C88.7332 218.336 88.8445 219.019 88.8445 219.827C88.8445 220.718 88.7258 221.485 88.4884 222.131C88.251 222.776 87.9135 223.269 87.4759 223.611C87.0382 223.944 86.5226 224.111 85.9292 224.111ZM86.0627 220.384C86.3891 220.384 86.6821 220.31 86.9418 220.161C87.2088 220.013 87.4165 219.813 87.5649 219.56C87.7132 219.301 87.7874 219.011 87.7874 218.692C87.7874 218.373 87.7132 218.084 87.5649 217.825C87.4165 217.565 87.2088 217.361 86.9418 217.213C86.6821 217.064 86.3891 216.99 86.0627 216.99C85.7438 216.99 85.4545 217.064 85.1948 217.213C84.9426 217.354 84.746 217.554 84.6051 217.813C84.4642 218.073 84.3937 218.366 84.3937 218.692C84.3937 219.019 84.4642 219.312 84.6051 219.571C84.746 219.824 84.9426 220.024 85.1948 220.172C85.4545 220.313 85.7438 220.384 86.0627 220.384ZM89.1818 226.337V225.502H90.517V216.712H89.1818V215.877H91.4628V226.337H89.1818Z" fill="#636363"/>
<path d="M102.206 224L99.5021 221.107L102.017 218.437H103.174L100.481 221.252L100.337 220.718L103.452 224H102.206ZM98.6676 224V218.437H99.6134V224H98.6676ZM105.766 224.111C105.247 224.111 104.787 223.989 104.386 223.744C103.993 223.499 103.685 223.158 103.463 222.72C103.24 222.283 103.129 221.782 103.129 221.218C103.129 220.654 103.24 220.154 103.463 219.716C103.685 219.278 103.993 218.937 104.386 218.692C104.787 218.448 105.247 218.325 105.766 218.325C106.285 218.325 106.745 218.448 107.146 218.692C107.546 218.937 107.858 219.278 108.08 219.716C108.303 220.154 108.414 220.654 108.414 221.218C108.414 221.782 108.303 222.283 108.08 222.72C107.858 223.158 107.546 223.499 107.146 223.744C106.745 223.989 106.285 224.111 105.766 224.111ZM105.766 223.277C106.122 223.277 106.426 223.195 106.678 223.032C106.938 222.869 107.135 222.631 107.268 222.32C107.402 222.008 107.468 221.641 107.468 221.218C107.468 220.795 107.402 220.428 107.268 220.117C107.135 219.805 106.938 219.568 106.678 219.405C106.426 219.241 106.122 219.16 105.766 219.16C105.417 219.16 105.113 219.241 104.854 219.405C104.601 219.568 104.408 219.805 104.275 220.117C104.141 220.428 104.075 220.795 104.075 221.218C104.075 221.641 104.141 222.008 104.275 222.32C104.408 222.631 104.601 222.869 104.854 223.032C105.113 223.195 105.417 223.277 105.766 223.277ZM108.363 225.558V223.165H112.591V219.271H110.076L110.51 218.77L110.388 221.33C110.366 221.723 110.332 222.038 110.288 222.275C110.243 222.513 110.169 222.717 110.065 222.887C109.969 223.058 109.824 223.221 109.631 223.377H108.652C108.852 223.266 109.004 223.128 109.108 222.965C109.22 222.795 109.301 222.576 109.353 222.309C109.405 222.042 109.442 221.678 109.464 221.218L109.609 218.437H113.537V223.165H114.483V225.558H113.648V224H109.197V225.558H108.363ZM119.315 224.111C118.795 224.111 118.335 223.989 117.935 223.744C117.534 223.499 117.223 223.158 117 222.72C116.778 222.283 116.666 221.782 116.666 221.218C116.666 220.654 116.778 220.154 117 219.716C117.223 219.278 117.531 218.937 117.924 218.692C118.324 218.448 118.777 218.325 119.281 218.325C119.852 218.325 120.346 218.477 120.761 218.781C121.176 219.086 121.462 219.508 121.618 220.05L120.783 220.206C120.672 219.872 120.483 219.616 120.216 219.438C119.956 219.253 119.645 219.16 119.281 219.16C118.94 219.16 118.643 219.241 118.391 219.405C118.146 219.568 117.953 219.805 117.812 220.117C117.679 220.428 117.612 220.795 117.612 221.218C117.612 221.649 117.679 222.019 117.812 222.331C117.953 222.635 118.15 222.869 118.402 223.032C118.662 223.195 118.966 223.277 119.315 223.277C119.685 223.277 120.004 223.188 120.271 223.01C120.539 222.824 120.728 222.565 120.839 222.231L121.673 222.387C121.57 222.743 121.406 223.051 121.184 223.31C120.961 223.57 120.691 223.77 120.372 223.911C120.053 224.045 119.7 224.111 119.315 224.111ZM124.566 224.111C124.04 224.111 123.572 223.989 123.164 223.744C122.764 223.499 122.452 223.158 122.23 222.72C122.007 222.283 121.896 221.782 121.896 221.218C121.896 220.654 122.004 220.154 122.219 219.716C122.441 219.278 122.749 218.937 123.142 218.692C123.543 218.448 123.999 218.325 124.511 218.325C125.008 218.325 125.449 218.44 125.835 218.67C126.228 218.9 126.532 219.223 126.747 219.638C126.962 220.054 127.07 220.525 127.07 221.051C127.07 221.192 127.055 221.341 127.026 221.496H122.452V220.718H126.402L126.18 221.085C126.18 220.692 126.109 220.35 125.968 220.061C125.835 219.772 125.642 219.549 125.39 219.393C125.145 219.238 124.852 219.16 124.511 219.16C124.17 219.16 123.873 219.245 123.621 219.416C123.368 219.579 123.176 219.816 123.042 220.128C122.909 220.432 122.842 220.795 122.842 221.218C122.842 221.649 122.909 222.019 123.042 222.331C123.183 222.635 123.383 222.869 123.643 223.032C123.903 223.195 124.21 223.277 124.566 223.277C124.908 223.277 125.208 223.203 125.468 223.054C125.727 222.906 125.924 222.691 126.057 222.409L126.903 222.553C126.725 223.043 126.428 223.425 126.013 223.7C125.598 223.974 125.115 224.111 124.566 224.111ZM131.28 224L128.577 221.107L131.091 218.437H132.248L129.556 221.252L129.411 220.718L132.527 224H131.28ZM127.742 224V218.437H128.688V224H127.742ZM133.981 224V219.271H132.089V218.437H136.818V219.271H134.927V224H133.981ZM139.353 224.111C138.834 224.111 138.374 223.989 137.973 223.744C137.58 223.499 137.272 223.158 137.049 222.72C136.827 222.283 136.716 221.782 136.716 221.218C136.716 220.654 136.827 220.154 137.049 219.716C137.272 219.278 137.58 218.937 137.973 218.692C138.374 218.448 138.834 218.325 139.353 218.325C139.872 218.325 140.332 218.448 140.733 218.692C141.133 218.937 141.445 219.278 141.667 219.716C141.89 220.154 142.001 220.654 142.001 221.218C142.001 221.782 141.89 222.283 141.667 222.72C141.445 223.158 141.133 223.499 140.733 223.744C140.332 223.989 139.872 224.111 139.353 224.111ZM139.353 223.277C139.709 223.277 140.013 223.195 140.265 223.032C140.525 222.869 140.721 222.631 140.855 222.32C140.988 222.008 141.055 221.641 141.055 221.218C141.055 220.795 140.988 220.428 140.855 220.117C140.721 219.805 140.525 219.568 140.265 219.405C140.013 219.241 139.709 219.16 139.353 219.16C139.004 219.16 138.7 219.241 138.44 219.405C138.188 219.568 137.995 219.805 137.862 220.117C137.728 220.428 137.661 220.795 137.661 221.218C137.661 221.641 137.728 222.008 137.862 222.32C137.995 222.631 138.188 222.869 138.44 223.032C138.7 223.195 139.004 223.277 139.353 223.277ZM142.67 226.225V218.437H143.561V219.438H143.616C143.839 219.074 144.117 218.8 144.451 218.615C144.784 218.422 145.155 218.325 145.563 218.325C146.031 218.325 146.446 218.448 146.81 218.692C147.173 218.937 147.455 219.278 147.655 219.716C147.856 220.154 147.956 220.654 147.956 221.218C147.956 221.782 147.856 222.283 147.655 222.72C147.455 223.158 147.173 223.499 146.81 223.744C146.446 223.989 146.031 224.111 145.563 224.111C145.155 224.111 144.784 224.019 144.451 223.833C144.124 223.648 143.865 223.388 143.672 223.054H143.616V226.225H142.67ZM145.374 223.277C145.715 223.277 146.008 223.195 146.253 223.032C146.498 222.869 146.683 222.635 146.81 222.331C146.943 222.019 147.01 221.649 147.01 221.218C147.01 220.788 146.943 220.421 146.81 220.117C146.683 219.805 146.498 219.568 146.253 219.405C146.008 219.241 145.715 219.16 145.374 219.16C145.026 219.16 144.718 219.245 144.451 219.416C144.184 219.586 143.976 219.827 143.828 220.139C143.687 220.451 143.616 220.81 143.616 221.218C143.616 221.626 143.687 221.986 143.828 222.298C143.976 222.609 144.184 222.85 144.451 223.021C144.718 223.191 145.026 223.277 145.374 223.277ZM150.097 224.111C149.763 224.111 149.459 224.045 149.184 223.911C148.91 223.777 148.691 223.588 148.528 223.344C148.372 223.091 148.294 222.798 148.294 222.464C148.294 222.108 148.383 221.797 148.561 221.53C148.739 221.255 148.988 221.044 149.307 220.896C149.626 220.74 149.993 220.662 150.408 220.662H152.422V221.441H150.464C150.227 221.441 150.015 221.478 149.83 221.552C149.644 221.626 149.5 221.738 149.396 221.886C149.292 222.027 149.24 222.201 149.24 222.409C149.24 222.683 149.329 222.898 149.507 223.054C149.685 223.203 149.93 223.277 150.241 223.277C150.56 223.277 150.85 223.206 151.109 223.065C151.376 222.924 151.584 222.724 151.732 222.464C151.888 222.197 151.966 221.893 151.966 221.552V220.439C151.966 220.165 151.918 219.935 151.821 219.75C151.732 219.557 151.595 219.412 151.41 219.316C151.224 219.212 150.994 219.16 150.72 219.16C150.356 219.16 150.052 219.241 149.807 219.405C149.57 219.568 149.403 219.813 149.307 220.139L148.461 219.994C148.609 219.482 148.873 219.078 149.251 218.781C149.629 218.477 150.119 218.325 150.72 218.325C151.187 218.325 151.584 218.414 151.91 218.592C152.244 218.77 152.493 219.019 152.656 219.338C152.827 219.649 152.912 220.017 152.912 220.439V222.887C152.912 223.021 152.938 223.121 152.99 223.188C153.042 223.247 153.127 223.277 153.246 223.277H153.468V224C153.402 224 153.335 224 153.268 224C153.209 224 153.146 224 153.079 224C152.775 224 152.541 223.918 152.378 223.755C152.215 223.592 152.133 223.358 152.133 223.054V222.665L152.411 222.943H152.077C151.855 223.329 151.569 223.622 151.221 223.822C150.879 224.015 150.505 224.111 150.097 224.111ZM153.799 224V222.776H155.023V224H153.799ZM153.799 219.66V218.437H155.023V219.66H153.799Z" fill="#D0D0D0"/>
<path d="M159.113 226.337V215.877H161.394V216.712H160.058V225.502H161.394V226.337H159.113ZM162.065 224V216.211H164.568C165.303 216.211 165.952 216.374 166.516 216.701C167.079 217.027 167.517 217.487 167.829 218.08C168.14 218.666 168.296 219.342 168.296 220.106C168.296 220.87 168.14 221.548 167.829 222.142C167.517 222.728 167.079 223.184 166.516 223.51C165.952 223.837 165.303 224 164.568 224H162.065ZM164.513 223.11C165.084 223.11 165.577 222.987 165.993 222.743C166.415 222.498 166.738 222.153 166.961 221.708C167.183 221.255 167.294 220.721 167.294 220.106C167.294 219.49 167.183 218.959 166.961 218.514C166.738 218.062 166.415 217.713 165.993 217.468C165.577 217.224 165.084 217.101 164.513 217.101H163.066V223.11H164.513ZM169.016 221.608V220.718H172.91V221.608H169.016ZM174.664 224V218.492H173.14V217.602H174.219C174.39 217.602 174.516 217.561 174.598 217.48C174.679 217.398 174.72 217.272 174.72 217.101V216.211H175.644V224H174.664ZM176.369 226.337V225.502H177.704V216.712H176.369V215.877H178.65V226.337H176.369Z" fill="#636363"/>
<path d="M186.747 226.225L187.67 223.522L188.071 224H187.025L185.056 218.437H186.046L187.693 223.266H187.748L189.34 218.437H190.285L187.637 226.225H186.747ZM190.68 226.225V218.437H191.57V219.438H191.626C191.848 219.074 192.126 218.8 192.46 218.615C192.794 218.422 193.165 218.325 193.573 218.325C194.04 218.325 194.456 218.448 194.819 218.692C195.183 218.937 195.465 219.278 195.665 219.716C195.865 220.154 195.965 220.654 195.965 221.218C195.965 221.782 195.865 222.283 195.665 222.72C195.465 223.158 195.183 223.499 194.819 223.744C194.456 223.989 194.04 224.111 193.573 224.111C193.165 224.111 192.794 224.019 192.46 223.833C192.134 223.648 191.874 223.388 191.681 223.054H191.626V226.225H190.68ZM193.384 223.277C193.725 223.277 194.018 223.195 194.263 223.032C194.508 222.869 194.693 222.635 194.819 222.331C194.953 222.019 195.019 221.649 195.019 221.218C195.019 220.788 194.953 220.421 194.819 220.117C194.693 219.805 194.508 219.568 194.263 219.405C194.018 219.241 193.725 219.16 193.384 219.16C193.035 219.16 192.727 219.245 192.46 219.416C192.193 219.586 191.986 219.827 191.837 220.139C191.696 220.451 191.626 220.81 191.626 221.218C191.626 221.626 191.696 221.986 191.837 222.298C191.986 222.609 192.193 222.85 192.46 223.021C192.727 223.191 193.035 223.277 193.384 223.277ZM198.941 224.111C198.422 224.111 197.962 223.989 197.561 223.744C197.168 223.499 196.86 223.158 196.638 222.72C196.415 222.283 196.304 221.782 196.304 221.218C196.304 220.654 196.415 220.154 196.638 219.716C196.86 219.278 197.168 218.937 197.561 218.692C197.962 218.448 198.422 218.325 198.941 218.325C199.46 218.325 199.92 218.448 200.321 218.692C200.721 218.937 201.033 219.278 201.255 219.716C201.478 220.154 201.589 220.654 201.589 221.218C201.589 221.782 201.478 222.283 201.255 222.72C201.033 223.158 200.721 223.499 200.321 223.744C199.92 223.989 199.46 224.111 198.941 224.111ZM198.941 223.277C199.297 223.277 199.601 223.195 199.853 223.032C200.113 222.869 200.31 222.631 200.443 222.32C200.577 222.008 200.643 221.641 200.643 221.218C200.643 220.795 200.577 220.428 200.443 220.117C200.31 219.805 200.113 219.568 199.853 219.405C199.601 219.241 199.297 219.16 198.941 219.16C198.592 219.16 198.288 219.241 198.029 219.405C197.776 219.568 197.583 219.805 197.45 220.117C197.316 220.428 197.25 220.795 197.25 221.218C197.25 221.641 197.316 222.008 197.45 222.32C197.583 222.631 197.776 222.869 198.029 223.032C198.288 223.195 198.592 223.277 198.941 223.277ZM202.259 224V218.437H204.929C205.255 218.437 205.548 218.5 205.808 218.626C206.075 218.752 206.283 218.926 206.431 219.149C206.579 219.364 206.654 219.609 206.654 219.883C206.654 220.217 206.542 220.502 206.32 220.74C206.105 220.977 205.804 221.122 205.419 221.174V220.996C205.878 221.092 206.227 221.266 206.464 221.519C206.702 221.771 206.821 222.086 206.821 222.464C206.821 222.769 206.746 223.036 206.598 223.266C206.45 223.496 206.238 223.677 205.964 223.811C205.697 223.937 205.389 224 205.04 224H202.259ZM204.985 223.165C205.259 223.165 205.474 223.095 205.63 222.954C205.793 222.813 205.875 222.617 205.875 222.364C205.875 222.112 205.793 221.916 205.63 221.775C205.474 221.626 205.259 221.552 204.985 221.552H202.915V220.773H204.873C205.133 220.773 205.337 220.706 205.485 220.573C205.634 220.432 205.708 220.247 205.708 220.017C205.708 219.787 205.634 219.605 205.485 219.471C205.337 219.338 205.133 219.271 204.873 219.271H203.204V223.165H204.985ZM209.879 224.111C209.352 224.111 208.885 223.989 208.477 223.744C208.077 223.499 207.765 223.158 207.543 222.72C207.32 222.283 207.209 221.782 207.209 221.218C207.209 220.654 207.316 220.154 207.531 219.716C207.754 219.278 208.062 218.937 208.455 218.692C208.855 218.448 209.312 218.325 209.824 218.325C210.321 218.325 210.762 218.44 211.148 218.67C211.541 218.9 211.845 219.223 212.06 219.638C212.275 220.054 212.383 220.525 212.383 221.051C212.383 221.192 212.368 221.341 212.338 221.496H207.765V220.718H211.715L211.493 221.085C211.493 220.692 211.422 220.35 211.281 220.061C211.148 219.772 210.955 219.549 210.703 219.393C210.458 219.238 210.165 219.16 209.824 219.16C209.482 219.16 209.186 219.245 208.933 219.416C208.681 219.579 208.488 219.816 208.355 220.128C208.221 220.432 208.154 220.795 208.154 221.218C208.154 221.649 208.221 222.019 208.355 222.331C208.496 222.635 208.696 222.869 208.956 223.032C209.215 223.195 209.523 223.277 209.879 223.277C210.22 223.277 210.521 223.203 210.78 223.054C211.04 222.906 211.237 222.691 211.37 222.409L212.216 222.553C212.038 223.043 211.741 223.425 211.326 223.7C210.91 223.974 210.428 224.111 209.879 224.111ZM216.727 224V218.437H217.672V224H216.727ZM213.055 224V218.437H214V224H213.055ZM213.555 221.585V220.751H217.161V221.585H213.555ZM218.676 224V218.437H219.621V220.662V220.773V223.165H220.845C221.068 223.165 221.257 223.125 221.413 223.043C221.569 222.961 221.687 222.847 221.769 222.698C221.858 222.542 221.902 222.364 221.902 222.164C221.902 221.852 221.81 221.608 221.624 221.43C221.439 221.252 221.179 221.163 220.845 221.163H219.332V220.328H220.901C221.279 220.328 221.617 220.406 221.913 220.562C222.21 220.718 222.44 220.936 222.603 221.218C222.767 221.493 222.848 221.808 222.848 222.164C222.848 222.52 222.767 222.839 222.603 223.121C222.44 223.395 222.21 223.611 221.913 223.766C221.617 223.922 221.279 224 220.901 224H218.676ZM223.401 224V222.776H224.625V224H223.401ZM223.401 219.66V218.437H224.625V219.66H223.401Z" fill="#D0D0D0"/>
<path d="M229.113 226.337V215.877H231.394V216.712H230.058V225.502H231.394V226.337H229.113ZM232.065 224V216.211H236.849V217.101H233.066V223.11H234.735C235.091 223.11 235.392 223.051 235.637 222.932C235.889 222.813 236.078 222.643 236.204 222.42C236.338 222.19 236.404 221.912 236.404 221.585C236.404 221.088 236.26 220.71 235.97 220.451C235.688 220.183 235.277 220.05 234.735 220.05H232.788V219.16H234.791C235.31 219.16 235.766 219.264 236.16 219.471C236.553 219.672 236.857 219.957 237.072 220.328C237.294 220.699 237.406 221.118 237.406 221.585C237.406 222.053 237.294 222.472 237.072 222.843C236.857 223.206 236.549 223.492 236.148 223.7C235.755 223.9 235.303 224 234.791 224H232.065ZM237.571 224L240.23 216.211H241.476L244.136 224H243.123L240.864 217.157H240.809L238.55 224H237.571ZM238.739 221.997L238.962 221.163H242.767L242.99 221.997H238.739ZM247.2 224.111C246.398 224.111 245.742 223.922 245.23 223.544C244.718 223.165 244.373 222.631 244.195 221.942L245.086 221.786C245.241 222.29 245.497 222.657 245.853 222.887C246.209 223.11 246.658 223.221 247.2 223.221C247.571 223.221 247.89 223.169 248.157 223.065C248.424 222.961 248.628 222.806 248.769 222.598C248.909 222.39 248.98 222.134 248.98 221.83C248.98 221.541 248.909 221.296 248.769 221.096C248.635 220.896 248.442 220.747 248.19 220.651C247.945 220.547 247.652 220.495 247.311 220.495H246.198V219.605H247.311C247.593 219.605 247.841 219.553 248.056 219.449C248.279 219.345 248.45 219.197 248.568 219.004C248.694 218.811 248.757 218.585 248.757 218.325C248.757 218.058 248.694 217.825 248.568 217.624C248.442 217.424 248.257 217.268 248.012 217.157C247.767 217.046 247.47 216.99 247.122 216.99C246.662 216.99 246.265 217.098 245.931 217.313C245.605 217.528 245.379 217.862 245.252 218.314L244.362 218.158C244.525 217.513 244.848 217.009 245.33 216.645C245.812 216.282 246.41 216.1 247.122 216.1C247.641 216.1 248.097 216.193 248.49 216.378C248.891 216.563 249.202 216.823 249.425 217.157C249.648 217.483 249.759 217.854 249.759 218.27C249.759 218.707 249.622 219.089 249.347 219.416C249.073 219.742 248.68 219.972 248.168 220.106V219.905C248.746 220.024 249.191 220.258 249.503 220.606C249.822 220.955 249.981 221.381 249.981 221.886C249.981 222.324 249.863 222.713 249.625 223.054C249.395 223.388 249.069 223.648 248.646 223.833C248.223 224.019 247.741 224.111 247.2 224.111ZM254.23 224.111C253.525 224.111 252.899 223.944 252.35 223.611C251.808 223.277 251.389 222.806 251.092 222.197C250.796 221.589 250.647 220.892 250.647 220.106C250.647 219.319 250.796 218.622 251.092 218.014C251.389 217.405 251.808 216.934 252.35 216.601C252.899 216.267 253.525 216.1 254.23 216.1C254.942 216.1 255.569 216.267 256.111 216.601C256.652 216.934 257.071 217.405 257.368 218.014C257.672 218.622 257.824 219.319 257.824 220.106C257.824 220.892 257.672 221.589 257.368 222.197C257.071 222.806 256.652 223.277 256.111 223.611C255.569 223.944 254.942 224.111 254.23 224.111ZM254.23 223.221C254.764 223.221 255.224 223.095 255.61 222.843C256.003 222.591 256.303 222.231 256.511 221.763C256.719 221.296 256.823 220.744 256.823 220.106C256.823 219.468 256.719 218.915 256.511 218.448C256.303 217.98 256.003 217.621 255.61 217.368C255.224 217.116 254.764 216.99 254.23 216.99C253.703 216.99 253.244 217.116 252.85 217.368C252.465 217.621 252.168 217.984 251.96 218.459C251.753 218.926 251.649 219.475 251.649 220.106C251.649 220.736 251.753 221.289 251.96 221.763C252.168 222.231 252.465 222.591 252.85 222.843C253.244 223.095 253.703 223.221 254.23 223.221ZM258.829 224V216.211H261.889C262.334 216.211 262.735 216.3 263.091 216.478C263.447 216.656 263.725 216.905 263.926 217.224C264.126 217.535 264.226 217.884 264.226 218.27C264.226 218.692 264.1 219.056 263.848 219.36C263.603 219.664 263.239 219.902 262.757 220.072V219.861C263.299 220.009 263.714 220.254 264.003 220.595C264.3 220.936 264.449 221.348 264.449 221.83C264.449 222.246 264.341 222.62 264.126 222.954C263.911 223.28 263.614 223.536 263.236 223.722C262.857 223.907 262.427 224 261.945 224H258.829ZM261.889 223.11C262.216 223.11 262.494 223.058 262.724 222.954C262.961 222.85 263.139 222.698 263.258 222.498C263.384 222.298 263.447 222.056 263.447 221.775C263.447 221.493 263.384 221.252 263.258 221.051C263.139 220.851 262.961 220.699 262.724 220.595C262.494 220.491 262.216 220.439 261.889 220.439H259.542V219.605H261.834C262.116 219.605 262.36 219.553 262.568 219.449C262.776 219.345 262.935 219.201 263.047 219.015C263.165 218.83 263.225 218.611 263.225 218.359C263.225 217.973 263.099 217.669 262.846 217.446C262.594 217.216 262.257 217.101 261.834 217.101H259.831V223.11H261.889ZM265.504 224V216.211H266.506V219.382V219.494V223.11H267.952C268.308 223.11 268.609 223.051 268.854 222.932C269.106 222.806 269.295 222.624 269.421 222.387C269.555 222.149 269.621 221.864 269.621 221.53C269.621 221.018 269.477 220.625 269.187 220.35C268.898 220.076 268.486 219.939 267.952 219.939H266.228V219.049H268.008C268.52 219.049 268.972 219.152 269.365 219.36C269.766 219.568 270.074 219.861 270.289 220.239C270.511 220.61 270.623 221.04 270.623 221.53C270.623 222.012 270.511 222.442 270.289 222.821C270.074 223.191 269.766 223.481 269.365 223.688C268.972 223.896 268.52 224 268.008 224H265.504ZM271.902 224V216.211H272.904V224H271.902ZM274.244 224V216.211H275.223V222.498H275.279L279.062 216.211H280.197V224H279.218V217.713H279.162L275.379 224H274.244ZM277.226 215.544C276.699 215.544 276.269 215.403 275.935 215.121C275.609 214.831 275.445 214.453 275.445 213.986H276.202C276.202 214.245 276.291 214.453 276.469 214.609C276.655 214.765 276.907 214.843 277.226 214.843C277.545 214.843 277.793 214.765 277.971 214.609C278.157 214.453 278.249 214.245 278.249 213.986H279.006C279.006 214.453 278.839 214.831 278.505 215.121C278.179 215.403 277.752 215.544 277.226 215.544ZM280.86 226.337V225.502H282.195V216.712H280.86V215.877H283.141V226.337H280.86Z" fill="#636363"/>
<path d="M127.056 46.5578V44.1655H131.284V40.271H128.769L129.203 39.7703L129.081 42.3295C129.058 42.7227 129.025 43.0379 128.981 43.2753C128.936 43.5127 128.862 43.7167 128.758 43.8873C128.662 44.0579 128.517 44.2211 128.324 44.3769H127.345C127.545 44.2656 127.697 44.1284 127.801 43.9652C127.912 43.7946 127.994 43.5758 128.046 43.3087C128.098 43.0417 128.135 42.6782 128.157 42.2183L128.302 39.4365H132.23V44.1655H133.175V46.5578H132.341V45H127.89V46.5578H127.056ZM135.04 45.1113C134.706 45.1113 134.402 45.0445 134.127 44.911C133.853 44.7775 133.634 44.5883 133.471 44.3435C133.315 44.0913 133.237 43.7983 133.237 43.4645C133.237 43.1084 133.326 42.7969 133.504 42.5298C133.682 42.2554 133.931 42.0439 134.25 41.8956C134.569 41.7398 134.936 41.6619 135.351 41.6619H137.365V42.4408H135.407C135.17 42.4408 134.958 42.4779 134.773 42.5521C134.587 42.6263 134.443 42.7375 134.339 42.8859C134.235 43.0268 134.183 43.2011 134.183 43.4088C134.183 43.6833 134.272 43.8984 134.45 44.0542C134.628 44.2026 134.873 44.2767 135.184 44.2767C135.503 44.2767 135.793 44.2063 136.052 44.0653C136.319 43.9244 136.527 43.7241 136.675 43.4645C136.831 43.1974 136.909 42.8933 136.909 42.5521V41.4394C136.909 41.1649 136.861 40.935 136.764 40.7495C136.675 40.5566 136.538 40.412 136.353 40.3156C136.167 40.2117 135.937 40.1598 135.663 40.1598C135.299 40.1598 134.995 40.2414 134.75 40.4046C134.513 40.5678 134.346 40.8126 134.25 41.1389L133.404 40.9943C133.552 40.4825 133.816 40.0782 134.194 39.7815C134.572 39.4773 135.062 39.3253 135.663 39.3253C136.13 39.3253 136.527 39.4143 136.853 39.5923C137.187 39.7703 137.436 40.0188 137.599 40.3378C137.77 40.6494 137.855 41.0166 137.855 41.4394V43.8873C137.855 44.0208 137.881 44.121 137.933 44.1877C137.985 44.2471 138.07 44.2767 138.189 44.2767H138.411V45C138.344 45 138.278 45 138.211 45C138.152 45 138.089 45 138.022 45C137.718 45 137.484 44.9184 137.321 44.7552C137.158 44.592 137.076 44.3583 137.076 44.0542V43.6648L137.354 43.9429H137.02C136.798 44.3287 136.512 44.6217 136.164 44.822C135.822 45.0148 135.448 45.1113 135.04 45.1113ZM142.581 45V39.4365H143.527V45H142.581ZM138.909 45V39.4365H139.855V45H138.909ZM139.41 42.5855V41.7509H143.015V42.5855H139.41ZM148.202 45V39.4365H149.148V45H148.202ZM144.53 45V39.4365H145.476V45H144.53ZM145.031 42.5855V41.7509H148.636V42.5855H145.031ZM150.151 45V39.4365H151.097V41.6619V41.7732V44.1655H152.209C152.432 44.1655 152.621 44.1247 152.777 44.0431C152.933 43.9615 153.051 43.8465 153.133 43.6981C153.222 43.5424 153.267 43.3643 153.267 43.1641C153.267 42.8525 153.174 42.6077 152.988 42.4297C152.803 42.2516 152.543 42.1626 152.209 42.1626H150.807V41.3281H152.265C152.643 41.3281 152.981 41.406 153.278 41.5618C153.574 41.7176 153.804 41.9364 153.968 42.2183C154.131 42.4927 154.212 42.808 154.212 43.1641C154.212 43.5201 154.131 43.8391 153.968 44.121C153.804 44.3954 153.574 44.6106 153.278 44.7663C152.981 44.9221 152.643 45 152.265 45H150.151ZM155.158 45V39.4365H156.104V45H155.158ZM159.445 45.1113C158.918 45.1113 158.451 44.9889 158.043 44.7441C157.642 44.4993 157.331 44.1581 157.108 43.7204C156.886 43.2827 156.775 42.782 156.775 42.2183C156.775 41.6545 156.882 41.1538 157.097 40.7161C157.32 40.2785 157.628 39.9372 158.021 39.6924C158.421 39.4477 158.878 39.3253 159.389 39.3253C159.886 39.3253 160.328 39.4402 160.714 39.6702C161.107 39.9001 161.411 40.2228 161.626 40.6382C161.841 41.0536 161.949 41.5247 161.949 42.0514C161.949 42.1923 161.934 42.3407 161.904 42.4964H157.331V41.7176H161.281L161.058 42.0847C161.058 41.6916 160.988 41.3504 160.847 41.0611C160.714 40.7718 160.521 40.5492 160.268 40.3934C160.024 40.2377 159.731 40.1598 159.389 40.1598C159.048 40.1598 158.751 40.2451 158.499 40.4157C158.247 40.5789 158.054 40.8163 157.921 41.1278C157.787 41.432 157.72 41.7954 157.72 42.2183C157.72 42.6485 157.787 43.0194 157.921 43.331C158.062 43.6351 158.262 43.8688 158.522 44.032C158.781 44.1952 159.089 44.2767 159.445 44.2767C159.786 44.2767 160.087 44.2026 160.346 44.0542C160.606 43.9059 160.803 43.6907 160.936 43.4088L161.782 43.5535C161.604 44.0431 161.307 44.4251 160.892 44.6996C160.476 44.974 159.994 45.1113 159.445 45.1113Z" fill="#D0D0D0"/>
<path d="M16.0571 43.8317V42.8859L19.8291 40.9164V41.2947L16.0571 39.3253V38.3795L20.2297 40.6049V41.6063L16.0571 43.8317ZM21.9496 43.8317V42.8859L25.7216 40.9164V41.2947L21.9496 39.3253V38.3795L26.1222 40.6049V41.6063L21.9496 43.8317ZM27.8421 43.8317V42.8859L31.6141 40.9164V41.2947L27.8421 39.3253V38.3795L32.0147 40.6049V41.6063L27.8421 43.8317Z" fill="#D0D0D0"/>
<path d="M175.668 45V39.4365H180.174V45H179.228V40.271H176.613V45H175.668ZM183.483 45.1113C182.964 45.1113 182.504 44.9889 182.103 44.7441C181.71 44.4993 181.402 44.1581 181.18 43.7204C180.957 43.2827 180.846 42.782 180.846 42.2183C180.846 41.6545 180.957 41.1538 181.18 40.7161C181.402 40.2785 181.71 39.9372 182.103 39.6924C182.504 39.4477 182.964 39.3253 183.483 39.3253C184.002 39.3253 184.462 39.4477 184.863 39.6924C185.263 39.9372 185.575 40.2785 185.797 40.7161C186.02 41.1538 186.131 41.6545 186.131 42.2183C186.131 42.782 186.02 43.2827 185.797 43.7204C185.575 44.1581 185.263 44.4993 184.863 44.7441C184.462 44.9889 184.002 45.1113 183.483 45.1113ZM183.483 44.2767C183.839 44.2767 184.143 44.1952 184.395 44.032C184.655 43.8688 184.852 43.6314 184.985 43.3198C185.119 43.0083 185.186 42.6411 185.186 42.2183C185.186 41.7954 185.119 41.4282 184.985 41.1167C184.852 40.8051 184.655 40.5678 184.395 40.4046C184.143 40.2414 183.839 40.1598 183.483 40.1598C183.134 40.1598 182.83 40.2414 182.571 40.4046C182.318 40.5678 182.126 40.8051 181.992 41.1167C181.859 41.4282 181.792 41.7954 181.792 42.2183C181.792 42.6411 181.859 43.0083 181.992 43.3198C182.126 43.6314 182.318 43.8688 182.571 44.032C182.83 44.1952 183.134 44.2767 183.483 44.2767ZM186.581 45.0556C186.499 45.0556 186.414 45.0556 186.325 45.0556C186.243 45.0556 186.162 45.0556 186.08 45.0556V44.1655H186.358C186.566 44.1655 186.725 44.1136 186.837 44.0097C186.955 43.8984 187.044 43.7056 187.104 43.4311C187.163 43.1566 187.208 42.7524 187.237 42.2183L187.382 39.4365H191.365V45H190.42V40.271H187.827L188.283 39.7703L188.161 42.3295C188.131 43.0268 188.057 43.572 187.938 43.9652C187.82 44.3583 187.653 44.6402 187.437 44.8108C187.222 44.974 186.937 45.0556 186.581 45.0556ZM196.039 45V39.4365H196.985V45H196.039ZM192.367 45V39.4365H193.313V45H192.367ZM192.868 42.5855V41.7509H196.473V42.5855H192.868ZM200.291 45.1113C199.772 45.1113 199.312 44.9889 198.912 44.7441C198.518 44.4993 198.211 44.1581 197.988 43.7204C197.765 43.2827 197.654 42.782 197.654 42.2183C197.654 41.6545 197.765 41.1538 197.988 40.7161C198.211 40.2785 198.518 39.9372 198.912 39.6924C199.312 39.4477 199.772 39.3253 200.291 39.3253C200.811 39.3253 201.27 39.4477 201.671 39.6924C202.072 39.9372 202.383 40.2785 202.606 40.7161C202.828 41.1538 202.94 41.6545 202.94 42.2183C202.94 42.782 202.828 43.2827 202.606 43.7204C202.383 44.1581 202.072 44.4993 201.671 44.7441C201.27 44.9889 200.811 45.1113 200.291 45.1113ZM200.291 44.2767C200.647 44.2767 200.951 44.1952 201.204 44.032C201.463 43.8688 201.66 43.6314 201.793 43.3198C201.927 43.0083 201.994 42.6411 201.994 42.2183C201.994 41.7954 201.927 41.4282 201.793 41.1167C201.66 40.8051 201.463 40.5678 201.204 40.4046C200.951 40.2414 200.647 40.1598 200.291 40.1598C199.943 40.1598 199.639 40.2414 199.379 40.4046C199.127 40.5678 198.934 40.8051 198.8 41.1167C198.667 41.4282 198.6 41.7954 198.6 42.2183C198.6 42.6411 198.667 43.0083 198.8 43.3198C198.934 43.6314 199.127 43.8688 199.379 44.032C199.639 44.1952 199.943 44.2767 200.291 44.2767ZM204.727 45V40.271H202.835V39.4365H207.564V40.271H205.673V45H204.727ZM209.373 45.1113C209.039 45.1113 208.735 45.0445 208.46 44.911C208.186 44.7775 207.967 44.5883 207.804 44.3435C207.648 44.0913 207.57 43.7983 207.57 43.4645C207.57 43.1084 207.659 42.7969 207.837 42.5298C208.015 42.2554 208.264 42.0439 208.583 41.8956C208.902 41.7398 209.269 41.6619 209.684 41.6619H211.698V42.4408H209.74C209.503 42.4408 209.291 42.4779 209.106 42.5521C208.92 42.6263 208.776 42.7375 208.672 42.8859C208.568 43.0268 208.516 43.2011 208.516 43.4088C208.516 43.6833 208.605 43.8984 208.783 44.0542C208.961 44.2026 209.206 44.2767 209.517 44.2767C209.836 44.2767 210.126 44.2063 210.385 44.0653C210.652 43.9244 210.86 43.7241 211.008 43.4645C211.164 43.1974 211.242 42.8933 211.242 42.5521V41.4394C211.242 41.1649 211.194 40.935 211.097 40.7495C211.008 40.5566 210.871 40.412 210.686 40.3156C210.5 40.2117 210.27 40.1598 209.996 40.1598C209.632 40.1598 209.328 40.2414 209.083 40.4046C208.846 40.5678 208.679 40.8126 208.583 41.1389L207.737 40.9943C207.885 40.4825 208.149 40.0782 208.527 39.7815C208.905 39.4773 209.395 39.3253 209.996 39.3253C210.463 39.3253 210.86 39.4143 211.186 39.5923C211.52 39.7703 211.769 40.0188 211.932 40.3378C212.103 40.6494 212.188 41.0166 212.188 41.4394V43.8873C212.188 44.0208 212.214 44.121 212.266 44.1877C212.318 44.2471 212.403 44.2767 212.522 44.2767H212.744V45C212.677 45 212.611 45 212.544 45C212.485 45 212.422 45 212.355 45C212.051 45 211.817 44.9184 211.654 44.7552C211.491 44.592 211.409 44.3583 211.409 44.0542V43.6648L211.687 43.9429H211.353C211.131 44.3287 210.845 44.6217 210.497 44.822C210.155 45.0148 209.781 45.1113 209.373 45.1113ZM213.075 45V43.776H214.299V45H213.075ZM213.075 40.6605V39.4365H214.299V40.6605H213.075Z" fill="#D0D0D0"/>
<path d="M218.113 47.3367V36.8773H220.394V37.7118H219.058V46.5021H220.394V47.3367H218.113ZM223.707 45V42.6077V42.4964V38.6354H223.651L220.959 42.5076L220.825 42.1626H225.743V42.9971H220.236V42.107L223.651 37.2111H224.686V45H223.707ZM226.522 45L229.315 38.1569V38.1013H225.41V37.2111H230.305V38.1569L227.535 45H226.522ZM232.422 45L237.029 37.2111H237.986L233.379 45H232.422ZM232.366 41.495C232.01 41.495 231.699 41.406 231.432 41.228C231.165 41.0425 230.957 40.7866 230.809 40.4602C230.66 40.1338 230.586 39.7555 230.586 39.3253C230.586 38.895 230.66 38.5167 230.809 38.1903C230.957 37.8639 231.165 37.6117 231.432 37.4337C231.699 37.2482 232.01 37.1555 232.366 37.1555C232.723 37.1555 233.034 37.2482 233.301 37.4337C233.568 37.6117 233.776 37.8639 233.924 38.1903C234.073 38.5167 234.147 38.895 234.147 39.3253C234.147 39.7555 234.073 40.1338 233.924 40.4602C233.776 40.7866 233.568 41.0425 233.301 41.228C233.034 41.406 232.723 41.495 232.366 41.495ZM232.366 40.7718C232.574 40.7718 232.749 40.7161 232.889 40.6049C233.03 40.4862 233.134 40.3193 233.201 40.1041C233.275 39.8816 233.312 39.622 233.312 39.3253C233.312 38.8728 233.231 38.5204 233.067 38.2682C232.904 38.0086 232.671 37.8788 232.366 37.8788C232.159 37.8788 231.984 37.9381 231.844 38.0568C231.703 38.1681 231.595 38.335 231.521 38.5575C231.454 38.7726 231.421 39.0285 231.421 39.3253C231.421 39.7778 231.502 40.1338 231.665 40.3934C231.829 40.6457 232.062 40.7718 232.366 40.7718ZM238.041 45.0556C237.685 45.0556 237.374 44.9666 237.107 44.7886C236.84 44.6031 236.632 44.3472 236.483 44.0208C236.335 43.6944 236.261 43.3161 236.261 42.8859C236.261 42.4556 236.335 42.0773 236.483 41.7509C236.632 41.4245 236.84 41.1723 237.107 40.9943C237.374 40.8088 237.685 40.7161 238.041 40.7161C238.397 40.7161 238.709 40.8088 238.976 40.9943C239.243 41.1723 239.451 41.4245 239.599 41.7509C239.747 42.0773 239.822 42.4556 239.822 42.8859C239.822 43.3161 239.747 43.6944 239.599 44.0208C239.451 44.3472 239.243 44.6031 238.976 44.7886C238.709 44.9666 238.397 45.0556 238.041 45.0556ZM238.041 44.3324C238.249 44.3324 238.423 44.2767 238.564 44.1655C238.705 44.0468 238.809 43.8799 238.876 43.6648C238.95 43.4422 238.987 43.1826 238.987 42.8859C238.987 42.4334 238.905 42.081 238.742 41.8288C238.579 41.5692 238.345 41.4394 238.041 41.4394C237.834 41.4394 237.659 41.4987 237.518 41.6174C237.377 41.7287 237.27 41.8956 237.196 42.1181C237.129 42.3332 237.095 42.5892 237.095 42.8859C237.095 43.3384 237.177 43.6944 237.34 43.9541C237.503 44.2063 237.737 44.3324 238.041 44.3324ZM239.878 47.3367V46.5021H241.214V37.7118H239.878V36.8773H242.16V47.3367H239.878Z" fill="#636363"/>
<path d="M175.668 61V55.4365H180.174V61H179.228V56.271H176.613V61H175.668ZM183.483 61.1113C182.964 61.1113 182.504 60.9889 182.103 60.7441C181.71 60.4993 181.402 60.1581 181.18 59.7204C180.957 59.2827 180.846 58.782 180.846 58.2183C180.846 57.6545 180.957 57.1538 181.18 56.7161C181.402 56.2785 181.71 55.9372 182.103 55.6924C182.504 55.4477 182.964 55.3253 183.483 55.3253C184.002 55.3253 184.462 55.4477 184.863 55.6924C185.263 55.9372 185.575 56.2785 185.797 56.7161C186.02 57.1538 186.131 57.6545 186.131 58.2183C186.131 58.782 186.02 59.2827 185.797 59.7204C185.575 60.1581 185.263 60.4993 184.863 60.7441C184.462 60.9889 184.002 61.1113 183.483 61.1113ZM183.483 60.2767C183.839 60.2767 184.143 60.1952 184.395 60.032C184.655 59.8688 184.852 59.6314 184.985 59.3198C185.119 59.0083 185.186 58.6411 185.186 58.2183C185.186 57.7954 185.119 57.4282 184.985 57.1167C184.852 56.8051 184.655 56.5678 184.395 56.4046C184.143 56.2414 183.839 56.1598 183.483 56.1598C183.134 56.1598 182.83 56.2414 182.571 56.4046C182.318 56.5678 182.126 56.8051 181.992 57.1167C181.859 57.4282 181.792 57.7954 181.792 58.2183C181.792 58.6411 181.859 59.0083 181.992 59.3198C182.126 59.6314 182.318 59.8688 182.571 60.032C182.83 60.1952 183.134 60.2767 183.483 60.2767ZM187.919 61V56.271H186.027V55.4365H190.756V56.271H188.864V61H187.919ZM193.324 61.1113C192.797 61.1113 192.33 60.9889 191.922 60.7441C191.521 60.4993 191.21 60.1581 190.987 59.7204C190.765 59.2827 190.653 58.782 190.653 58.2183C190.653 57.6545 190.761 57.1538 190.976 56.7161C191.199 56.2785 191.506 55.9372 191.9 55.6924C192.3 55.4477 192.756 55.3253 193.268 55.3253C193.765 55.3253 194.207 55.4402 194.592 55.6702C194.985 55.9001 195.29 56.2228 195.505 56.6382C195.72 57.0536 195.827 57.5247 195.827 58.0514C195.827 58.1923 195.813 58.3407 195.783 58.4964H191.21V57.7176H195.16L194.937 58.0847C194.937 57.6916 194.867 57.3504 194.726 57.0611C194.592 56.7718 194.399 56.5492 194.147 56.3934C193.902 56.2377 193.609 56.1598 193.268 56.1598C192.927 56.1598 192.63 56.2451 192.378 56.4157C192.126 56.5789 191.933 56.8163 191.799 57.1278C191.666 57.432 191.599 57.7954 191.599 58.2183C191.599 58.6485 191.666 59.0194 191.799 59.331C191.94 59.6351 192.141 59.8688 192.4 60.032C192.66 60.1952 192.968 60.2767 193.324 60.2767C193.665 60.2767 193.965 60.2026 194.225 60.0542C194.485 59.9059 194.681 59.6907 194.815 59.4088L195.66 59.5535C195.482 60.0431 195.186 60.4251 194.77 60.6996C194.355 60.974 193.873 61.1113 193.324 61.1113ZM196.499 63.2254V55.4365H197.39V56.438H197.445C197.668 56.0745 197.946 55.8 198.28 55.6146C198.613 55.4217 198.984 55.3253 199.392 55.3253C199.86 55.3253 200.275 55.4477 200.639 55.6924C201.002 55.9372 201.284 56.2785 201.484 56.7161C201.685 57.1538 201.785 57.6545 201.785 58.2183C201.785 58.782 201.685 59.2827 201.484 59.7204C201.284 60.1581 201.002 60.4993 200.639 60.7441C200.275 60.9889 199.86 61.1113 199.392 61.1113C198.984 61.1113 198.613 61.0185 198.28 60.8331C197.953 60.6476 197.694 60.388 197.501 60.0542H197.445V63.2254H196.499ZM199.203 60.2767C199.544 60.2767 199.837 60.1952 200.082 60.032C200.327 59.8688 200.512 59.6351 200.639 59.331C200.772 59.0194 200.839 58.6485 200.839 58.2183C200.839 57.788 200.772 57.4208 200.639 57.1167C200.512 56.8051 200.327 56.5678 200.082 56.4046C199.837 56.2414 199.544 56.1598 199.203 56.1598C198.855 56.1598 198.547 56.2451 198.28 56.4157C198.013 56.5863 197.805 56.8274 197.657 57.1389C197.516 57.4505 197.445 57.8103 197.445 58.2183C197.445 58.6263 197.516 58.986 197.657 59.2976C197.805 59.6091 198.013 59.8502 198.28 60.0208C198.547 60.1914 198.855 60.2767 199.203 60.2767ZM202.457 61V55.4365H203.381V59.6425H203.436L206.151 55.4365H207.186V61H206.262V56.794H206.207L203.492 61H202.457ZM208.02 61V59.776H209.244V61H208.02ZM208.02 56.6605V55.4365H209.244V56.6605H208.02Z" fill="#D0D0D0"/>
<path d="M213.113 63.3367V52.8773H215.394V53.7118H214.058V62.5021H215.394V63.3367H213.113ZM215.503 62.7247V60.1098H221.011V54.1013H217.617L218.151 53.6006L217.973 57.4282C217.944 58.0069 217.896 58.4742 217.829 58.8302C217.769 59.1789 217.677 59.4682 217.551 59.6981C217.432 59.9281 217.265 60.1432 217.05 60.3435H215.848C216.115 60.2322 216.327 60.069 216.482 59.8539C216.638 59.6388 216.757 59.3347 216.838 58.9415C216.92 58.5484 216.976 58.0143 217.005 57.3392L217.195 53.2111H222.013V60.1098H223.07V62.7247H222.179V61H216.393V62.7247H215.503ZM226.88 61.1113C226.175 61.1113 225.548 60.9444 224.999 60.6106C224.458 60.2767 224.039 59.8057 223.742 59.1974C223.445 58.5892 223.297 57.8919 223.297 57.1056C223.297 56.3193 223.445 55.622 223.742 55.0137C224.039 54.4054 224.458 53.9344 224.999 53.6006C225.548 53.2668 226.175 53.0999 226.88 53.0999C227.592 53.0999 228.219 53.2668 228.76 53.6006C229.302 53.9344 229.721 54.4054 230.018 55.0137C230.322 55.622 230.474 56.3193 230.474 57.1056C230.474 57.8919 230.322 58.5892 230.018 59.1974C229.721 59.8057 229.302 60.2767 228.76 60.6106C228.219 60.9444 227.592 61.1113 226.88 61.1113ZM226.88 60.2211C227.414 60.2211 227.874 60.095 228.26 59.8428C228.653 59.5906 228.953 59.2308 229.161 58.7635C229.368 58.2962 229.472 57.7435 229.472 57.1056C229.472 56.4676 229.368 55.915 229.161 55.4477C228.953 54.9803 228.653 54.6205 228.26 54.3683C227.874 54.1161 227.414 53.99 226.88 53.99C226.353 53.99 225.893 54.1161 225.5 54.3683C225.114 54.6205 224.818 54.984 224.61 55.4588C224.402 55.9261 224.298 56.475 224.298 57.1056C224.298 57.7361 224.402 58.2887 224.61 58.7635C224.818 59.2308 225.114 59.5906 225.5 59.8428C225.893 60.095 226.353 60.2211 226.88 60.2211ZM231.479 61V53.2111H237.209V61H236.208V54.1013H232.481V61H231.479ZM239.624 61L240.782 58.4185L240.737 59.0305L237.711 53.2111H238.801L241.093 57.7176H241.149L243.118 53.2111H244.109L240.615 61H239.624ZM247.753 61.1113C247.034 61.1113 246.396 60.9444 245.839 60.6106C245.29 60.2767 244.864 59.8094 244.56 59.2086C244.263 58.6003 244.115 57.8993 244.115 57.1056C244.115 56.3193 244.263 55.622 244.56 55.0137C244.864 54.4054 245.29 53.9344 245.839 53.6006C246.388 53.2668 247.019 53.0999 247.731 53.0999C248.25 53.0999 248.721 53.1926 249.144 53.378C249.574 53.5635 249.942 53.8342 250.246 54.1903C250.557 54.5464 250.795 54.9803 250.958 55.4922L250.057 55.6479C249.878 55.1138 249.589 54.7059 249.189 54.424C248.788 54.1347 248.302 53.99 247.731 53.99C247.197 53.99 246.733 54.1161 246.34 54.3683C245.947 54.6131 245.643 54.9729 245.428 55.4477C245.22 55.915 245.116 56.4676 245.116 57.1056C245.116 57.7435 245.22 58.2999 245.428 58.7746C245.643 59.2419 245.947 59.6017 246.34 59.8539C246.741 60.0987 247.212 60.2211 247.753 60.2211C248.339 60.2211 248.833 60.0802 249.233 59.7983C249.641 59.509 249.934 59.0973 250.112 58.5632L251.013 58.719C250.85 59.2308 250.613 59.6648 250.301 60.0208C249.99 60.3769 249.619 60.6476 249.189 60.8331C248.758 61.0185 248.28 61.1113 247.753 61.1113ZM253.58 61V54.1013H250.965V53.2111H257.196V54.1013H254.581V61H253.58ZM257.809 61V53.2111H258.788V59.4979H258.844L262.627 53.2111H263.762V61H262.783V54.7133H262.727L258.944 61H257.809ZM265.092 61V53.2111H266.539L269.098 59.9096H269.154L271.713 53.2111H273.104V61H272.125V54.6131H272.069L269.621 61H268.575L266.127 54.6131H266.072V61H265.092ZM274.44 61V53.2111H275.442V56.3823V56.4936V60.1098H276.888C277.244 60.1098 277.545 60.0505 277.79 59.9318C278.042 59.8057 278.231 59.624 278.357 59.3866C278.491 59.1492 278.557 58.8636 278.557 58.5298C278.557 58.018 278.413 57.6248 278.123 57.3504C277.834 57.0759 277.422 56.9387 276.888 56.9387H275.164V56.0485H276.944C277.456 56.0485 277.908 56.1524 278.301 56.3601C278.702 56.5678 279.01 56.8608 279.225 57.2391C279.448 57.61 279.559 58.0402 279.559 58.5298C279.559 59.012 279.448 59.4422 279.225 59.8205C279.01 60.1914 278.702 60.4807 278.301 60.6884C277.908 60.8961 277.456 61 276.944 61H274.44ZM280.838 61V53.2111H281.84V61H280.838ZM282.512 63.3367V62.5021H283.847V53.7118H282.512V52.8773H284.793V63.3367H282.512Z" fill="#636363"/>
<path d="M177.136 77.1113C176.803 77.1113 176.498 77.0445 176.224 76.911C175.949 76.7775 175.731 76.5883 175.567 76.3435C175.412 76.0913 175.334 75.7983 175.334 75.4645C175.334 75.1084 175.423 74.7969 175.601 74.5298C175.779 74.2554 176.027 74.0439 176.346 73.8956C176.665 73.7398 177.033 73.6619 177.448 73.6619H179.462V74.4408H177.504C177.266 74.4408 177.055 74.4779 176.869 74.5521C176.684 74.6263 176.539 74.7375 176.435 74.8859C176.332 75.0268 176.28 75.2011 176.28 75.4088C176.28 75.6833 176.369 75.8984 176.547 76.0542C176.725 76.2026 176.969 76.2767 177.281 76.2767C177.6 76.2767 177.889 76.2063 178.149 76.0653C178.416 75.9244 178.624 75.7241 178.772 75.4645C178.928 75.1974 179.006 74.8933 179.006 74.5521V73.4394C179.006 73.1649 178.957 72.935 178.861 72.7495C178.772 72.5566 178.635 72.412 178.449 72.3156C178.264 72.2117 178.034 72.1598 177.759 72.1598C177.396 72.1598 177.092 72.2414 176.847 72.4046C176.61 72.5678 176.443 72.8126 176.346 73.1389L175.501 72.9943C175.649 72.4825 175.912 72.0782 176.291 71.7815C176.669 71.4773 177.159 71.3253 177.759 71.3253C178.227 71.3253 178.624 71.4143 178.95 71.5923C179.284 71.7703 179.532 72.0188 179.696 72.3378C179.866 72.6494 179.951 73.0166 179.951 73.4394V75.8873C179.951 76.0208 179.977 76.121 180.029 76.1877C180.081 76.2471 180.167 76.2767 180.285 76.2767H180.508V77C180.441 77 180.374 77 180.308 77C180.248 77 180.185 77 180.118 77C179.814 77 179.581 76.9184 179.417 76.7552C179.254 76.592 179.173 76.3583 179.173 76.0542V75.6648L179.451 75.9429H179.117C178.894 76.3287 178.609 76.6217 178.26 76.822C177.919 77.0148 177.544 77.1113 177.136 77.1113ZM181.006 79.2254V71.4365H181.896V72.438H181.952C182.174 72.0745 182.452 71.8 182.786 71.6146C183.12 71.4217 183.491 71.3253 183.899 71.3253C184.366 71.3253 184.782 71.4477 185.145 71.6924C185.509 71.9372 185.791 72.2785 185.991 72.7161C186.191 73.1538 186.291 73.6545 186.291 74.2183C186.291 74.782 186.191 75.2827 185.991 75.7204C185.791 76.1581 185.509 76.4993 185.145 76.7441C184.782 76.9889 184.366 77.1113 183.899 77.1113C183.491 77.1113 183.12 77.0185 182.786 76.8331C182.46 76.6476 182.2 76.388 182.007 76.0542H181.952V79.2254H181.006ZM183.71 76.2767C184.051 76.2767 184.344 76.1952 184.589 76.032C184.834 75.8688 185.019 75.6351 185.145 75.331C185.279 75.0194 185.345 74.6485 185.345 74.2183C185.345 73.788 185.279 73.4208 185.145 73.1167C185.019 72.8051 184.834 72.5678 184.589 72.4046C184.344 72.2414 184.051 72.1598 183.71 72.1598C183.361 72.1598 183.053 72.2451 182.786 72.4157C182.519 72.5863 182.312 72.8274 182.163 73.1389C182.022 73.4505 181.952 73.8103 181.952 74.2183C181.952 74.6263 182.022 74.986 182.163 75.2976C182.312 75.6091 182.519 75.8502 182.786 76.0208C183.053 76.1914 183.361 76.2767 183.71 76.2767ZM186.134 77L188.337 73.8066L188.226 74.4074L186.246 71.4365H187.292L188.627 73.4728H188.682L190.018 71.4365H191.03L189.05 74.4074L188.938 73.8066L191.141 77H190.073L188.649 74.897H188.593L187.169 77H186.134ZM191.53 77V71.4365H192.454V75.6425H192.51L195.225 71.4365H196.259V77H195.336V72.794H195.28L192.565 77H191.53ZM197.26 77V71.4365H199.93C200.257 71.4365 200.55 71.4996 200.809 71.6257C201.077 71.7518 201.284 71.9261 201.433 72.1487C201.581 72.3638 201.655 72.6086 201.655 72.883C201.655 73.2168 201.544 73.5024 201.321 73.7398C201.106 73.9772 200.806 74.1218 200.42 74.1738V73.9957C200.88 74.0922 201.229 74.2665 201.466 74.5187C201.703 74.7709 201.822 75.0862 201.822 75.4645C201.822 75.7686 201.748 76.0357 201.599 76.2656C201.451 76.4956 201.24 76.6773 200.965 76.8108C200.698 76.9369 200.39 77 200.042 77H197.26ZM199.986 76.1655C200.261 76.1655 200.476 76.095 200.631 75.9541C200.795 75.8131 200.876 75.6165 200.876 75.3643C200.876 75.1121 200.795 74.9156 200.631 74.7746C200.476 74.6263 200.261 74.5521 199.986 74.5521H197.916V73.7732H199.875C200.134 73.7732 200.338 73.7064 200.487 73.5729C200.635 73.432 200.709 73.2465 200.709 73.0166C200.709 72.7866 200.635 72.6049 200.487 72.4713C200.338 72.3378 200.134 72.271 199.875 72.271H198.206V76.1655H199.986ZM202.377 77V75.776H203.601V77H202.377ZM202.377 72.6605V71.4365H203.601V72.6605H202.377Z" fill="#D0D0D0"/>
<path d="M208.113 79.3367V68.8773H210.394V69.7118H209.058V78.5021H210.394V79.3367H208.113ZM210.503 78.7247V76.1098H216.011V70.1013H212.617L213.151 69.6006L212.973 73.4282C212.944 74.0069 212.896 74.4742 212.829 74.8302C212.769 75.1789 212.677 75.4682 212.551 75.6981C212.432 75.9281 212.265 76.1432 212.05 76.3435H210.848C211.115 76.2322 211.327 76.069 211.482 75.8539C211.638 75.6388 211.757 75.3347 211.838 74.9415C211.92 74.5484 211.976 74.0143 212.005 73.3392L212.195 69.2111H217.013V76.1098H218.07V78.7247H217.179V77H211.393V78.7247H210.503ZM221.88 77.1113C221.175 77.1113 220.548 76.9444 219.999 76.6106C219.458 76.2767 219.039 75.8057 218.742 75.1974C218.445 74.5892 218.297 73.8919 218.297 73.1056C218.297 72.3193 218.445 71.622 218.742 71.0137C219.039 70.4054 219.458 69.9344 219.999 69.6006C220.548 69.2668 221.175 69.0999 221.88 69.0999C222.592 69.0999 223.219 69.2668 223.76 69.6006C224.302 69.9344 224.721 70.4054 225.018 71.0137C225.322 71.622 225.474 72.3193 225.474 73.1056C225.474 73.8919 225.322 74.5892 225.018 75.1974C224.721 75.8057 224.302 76.2767 223.76 76.6106C223.219 76.9444 222.592 77.1113 221.88 77.1113ZM221.88 76.2211C222.414 76.2211 222.874 76.095 223.26 75.8428C223.653 75.5906 223.953 75.2308 224.161 74.7635C224.368 74.2962 224.472 73.7435 224.472 73.1056C224.472 72.4676 224.368 71.915 224.161 71.4477C223.953 70.9803 223.653 70.6205 223.26 70.3683C222.874 70.1161 222.414 69.99 221.88 69.99C221.353 69.99 220.893 70.1161 220.5 70.3683C220.114 70.6205 219.818 70.984 219.61 71.4588C219.402 71.9261 219.298 72.475 219.298 73.1056C219.298 73.7361 219.402 74.2887 219.61 74.7635C219.818 75.2308 220.114 75.5906 220.5 75.8428C220.893 76.095 221.353 76.2211 221.88 76.2211ZM229.784 77.1113C229.064 77.1113 228.426 76.9444 227.87 76.6106C227.321 76.2767 226.895 75.8094 226.59 75.2086C226.294 74.6003 226.145 73.8993 226.145 73.1056C226.145 72.3193 226.294 71.622 226.59 71.0137C226.895 70.4054 227.321 69.9344 227.87 69.6006C228.419 69.2668 229.049 69.0999 229.762 69.0999C230.281 69.0999 230.752 69.1926 231.175 69.378C231.605 69.5635 231.972 69.8342 232.276 70.1903C232.588 70.5464 232.825 70.9803 232.988 71.4922L232.087 71.6479C231.909 71.1138 231.62 70.7059 231.219 70.424C230.819 70.1347 230.333 69.99 229.762 69.99C229.227 69.99 228.764 70.1161 228.371 70.3683C227.978 70.6131 227.673 70.9729 227.458 71.4477C227.251 71.915 227.147 72.4676 227.147 73.1056C227.147 73.7435 227.251 74.2999 227.458 74.7746C227.673 75.2419 227.978 75.6017 228.371 75.8539C228.771 76.0987 229.242 76.2211 229.784 76.2211C230.37 76.2211 230.863 76.0802 231.264 75.7983C231.672 75.509 231.965 75.0973 232.143 74.5632L233.044 74.719C232.881 75.2308 232.643 75.6648 232.332 76.0208C232.02 76.3769 231.649 76.6476 231.219 76.8331C230.789 77.0185 230.31 77.1113 229.784 77.1113ZM235.611 77V70.1013H232.996V69.2111H239.227V70.1013H236.612V77H235.611ZM240.919 77L242.076 74.4185L242.032 75.0305L239.005 69.2111H240.096L242.388 73.7176H242.443L244.413 69.2111H245.403L241.909 77H240.919ZM245.96 77V69.2111H251.691V77H250.689V70.1013H246.962V77H245.96ZM253.026 77V69.2111H257.811V70.1013H254.028V76.1098H257.867V77H253.026ZM253.638 73.495V72.6049H257.422V73.495H253.638ZM263.824 77V69.2111H264.826V77H263.824ZM258.984 77V69.2111H259.986V77H258.984ZM259.507 73.495V72.6049H264.292V73.495H259.507ZM265.491 79.3367V78.5021H266.826V69.7118H265.491V68.8773H267.772V79.3367H265.491Z" fill="#636363"/>
</svg>
