<svg width="1040" height="30" viewBox="0 0 1040 30" fill="none" xmlns="http://www.w3.org/2000/svg">
<g clip-path="url(#clip0_829_1519)">
<path d="M0.649067 16.3564C0.216356 15.9237 0 15.4045 0 14.7987C0 14.1929 0.216356 13.6736 0.649067 13.2409C1.08178 12.8082 1.60103 12.5919 2.20683 12.5919C2.81263 12.5919 3.33188 12.8082 3.76459 13.2409C4.1973 13.6736 4.41366 14.1929 4.41366 14.7987C4.41366 15.4045 4.1973 15.9237 3.76459 16.3564C3.33188 16.7459 2.81263 16.9406 2.20683 16.9406C1.60103 16.9406 1.08178 16.7459 0.649067 16.3564ZM0.649067 28.8834C0.216356 28.4507 0 27.9315 0 27.3257C0 26.7199 0.216356 26.2223 0.649067 25.8328C1.08178 25.4001 1.60103 25.1838 2.20683 25.1838C2.81263 25.1838 3.33188 25.4001 3.76459 25.8328C4.1973 26.2223 4.41366 26.7199 4.41366 27.3257C4.41366 27.9315 4.1973 28.4507 3.76459 28.8834C3.33188 29.3162 2.81263 29.5325 2.20683 29.5325C1.60103 29.5325 1.08178 29.3162 0.649067 28.8834ZM4.99782 10.1903C4.56511 9.75765 4.34875 9.23839 4.34875 8.6326C4.34875 8.0268 4.56511 7.50755 4.99782 7.07483C5.43053 6.64212 5.94978 6.42577 6.55558 6.42577C7.16138 6.42577 7.68063 6.64212 8.11334 7.07483C8.54605 7.50755 8.76241 8.0268 8.76241 8.6326C8.76241 9.23839 8.54605 9.75765 8.11334 10.1903C7.68063 10.623 7.16138 10.8394 6.55558 10.8394C5.94978 10.8394 5.43053 10.623 4.99782 10.1903ZM2.20683 18.8878H19.6668C20.2726 18.8878 20.7918 19.1042 21.2245 19.5369C21.6572 19.9263 21.8736 20.4239 21.8736 21.0297C21.8736 21.6355 21.6572 22.1548 21.2245 22.5875C20.7918 23.0202 20.2726 23.2366 19.6668 23.2366H2.20683C1.60103 23.2366 1.08178 23.0202 0.649067 22.5875C0.216356 22.1548 0 21.6355 0 21.0297C0 20.4239 0.216356 19.9263 0.649067 19.5369C1.08178 19.1042 1.60103 18.8878 2.20683 18.8878ZM8.76241 2.20683C8.76241 1.64431 8.97876 1.14669 9.41148 0.713974C9.84419 0.237991 10.3635 0 10.9693 0C11.5751 0 12.0943 0.237991 12.527 0.713974C12.9597 1.14669 13.1761 1.64431 13.1761 2.20683C13.1761 2.81263 12.9597 3.33188 12.527 3.76459C12.0943 4.1973 11.5751 4.41366 10.9693 4.41366C10.3635 4.41366 9.84419 4.1973 9.41148 3.76459C8.97876 3.33188 8.76241 2.81263 8.76241 2.20683ZM13.7603 10.1903C13.3275 9.75765 13.1112 9.23839 13.1112 8.6326C13.1112 8.0268 13.3275 7.50755 13.7603 7.07483C14.2362 6.64212 14.7555 6.42577 15.318 6.42577C15.8805 6.42577 16.3782 6.64212 16.8109 7.07483C17.2869 7.50755 17.5248 8.0268 17.5248 8.6326C17.5248 9.23839 17.3085 9.75765 16.8758 10.1903C16.4431 10.623 15.9238 10.8394 15.318 10.8394C14.7122 10.8394 14.193 10.623 13.7603 10.1903ZM18.109 16.3564C17.6763 15.9237 17.4599 15.4045 17.4599 14.7987C17.4599 14.1929 17.6763 13.6736 18.109 13.2409C18.5417 12.8082 19.061 12.5919 19.6668 12.5919C20.2726 12.5919 20.7918 12.8082 21.2245 13.2409C21.6572 13.6736 21.8736 14.1929 21.8736 14.7987C21.8736 15.4045 21.6572 15.9237 21.2245 16.3564C20.7918 16.7459 20.2726 16.9406 19.6668 16.9406C19.061 16.9406 18.5417 16.7459 18.109 16.3564ZM18.109 28.8834C17.6763 28.4507 17.4599 27.9315 17.4599 27.3257C17.4599 26.7199 17.6763 26.2223 18.109 25.8328C18.5417 25.4001 19.061 25.1838 19.6668 25.1838C20.2726 25.1838 20.7918 25.4001 21.2245 25.8328C21.6572 26.2223 21.8736 26.7199 21.8736 27.3257C21.8736 27.9315 21.6572 28.4507 21.2245 28.8834C20.7918 29.3162 20.2726 29.5325 19.6668 29.5325C19.061 29.5325 18.5417 29.3162 18.109 28.8834ZM210.273 22.5875C209.84 22.1548 209.624 21.6355 209.624 21.0297C209.624 20.4239 209.84 19.9263 210.273 19.5369C210.706 19.1042 211.225 18.8878 211.831 18.8878C212.436 18.8878 212.956 19.1042 213.388 19.5369C213.821 19.9263 214.037 20.4239 214.037 21.0297C214.037 21.6355 213.821 22.1548 213.388 22.5875C212.956 23.0202 212.436 23.2366 211.831 23.2366C211.225 23.2366 210.706 23.0202 210.273 22.5875ZM207.482 25.1838H224.942C225.548 25.1838 226.067 25.4001 226.499 25.8328C226.932 26.2223 227.149 26.7199 227.149 27.3257C227.149 27.9315 226.932 28.4507 226.499 28.8834C226.067 29.3162 225.548 29.5325 224.942 29.5325H207.482C206.876 29.5325 206.357 29.3162 205.924 28.8834C205.491 28.4507 205.275 27.9315 205.275 27.3257C205.275 26.7199 205.491 26.2223 205.924 25.8328C206.357 25.4001 206.876 25.1838 207.482 25.1838ZM207.482 0H224.942C225.548 0 226.067 0.237991 226.499 0.713974C226.932 1.14669 227.149 1.64431 227.149 2.20683C227.149 2.81263 226.932 3.33188 226.499 3.76459C226.067 4.1973 225.548 4.41366 224.942 4.41366H207.482C206.876 4.41366 206.357 4.1973 205.924 3.76459C205.491 3.33188 205.275 2.81263 205.275 2.20683C205.275 1.64431 205.491 1.14669 205.924 0.713974C206.4 0.237991 206.919 0 207.482 0ZM214.686 16.3564C214.254 15.9237 214.037 15.4045 214.037 14.7987C214.037 14.1929 214.254 13.6736 214.686 13.2409C215.119 12.8082 215.638 12.5919 216.244 12.5919C216.85 12.5919 217.369 12.8082 217.802 13.2409C218.235 13.6736 218.451 14.1929 218.451 14.7987C218.451 15.4045 218.235 15.9237 217.802 16.3564C217.369 16.7459 216.85 16.9406 216.244 16.9406C215.638 16.9406 215.119 16.7459 214.686 16.3564ZM219.035 10.1903C218.603 9.75765 218.386 9.23839 218.386 8.6326C218.386 8.0268 218.603 7.50755 219.035 7.07483C219.511 6.64212 220.03 6.42577 220.593 6.42577C221.156 6.42577 221.653 6.64212 222.086 7.07483C222.562 7.50755 222.8 8.0268 222.8 8.6326C222.8 9.23839 222.583 9.75765 222.151 10.1903C221.718 10.623 221.199 10.8394 220.593 10.8394C219.987 10.8394 219.468 10.623 219.035 10.1903ZM412.757 25.1838H421.519C422.125 25.1838 422.644 25.4001 423.077 25.8328C423.51 26.2223 423.726 26.7199 423.726 27.3257C423.726 27.9315 423.51 28.4507 423.077 28.8834C422.644 29.3162 422.125 29.5325 421.519 29.5325H412.757C412.151 29.5325 411.632 29.3162 411.199 28.8834C410.766 28.4507 410.55 27.9315 410.55 27.3257C410.55 26.7199 410.766 26.2223 411.199 25.8328C411.632 25.4001 412.151 25.1838 412.757 25.1838ZM415.548 10.1903C415.115 9.75765 414.899 9.23839 414.899 8.6326C414.899 8.0268 415.115 7.50755 415.548 7.07483C415.981 6.64212 416.5 6.42577 417.106 6.42577C417.711 6.42577 418.231 6.64212 418.663 7.07483C419.096 7.50755 419.312 8.0268 419.312 8.6326C419.312 9.23839 419.096 9.75765 418.663 10.1903C418.231 10.623 417.711 10.8394 417.106 10.8394C416.5 10.8394 415.981 10.623 415.548 10.1903ZM415.548 22.5875C415.115 22.1548 414.899 21.6355 414.899 21.0297C414.899 20.4239 415.115 19.9263 415.548 19.5369C415.981 19.1042 416.5 18.8878 417.106 18.8878C417.711 18.8878 418.231 19.1042 418.663 19.5369C419.096 19.9263 419.312 20.4239 419.312 21.0297C419.312 21.6355 419.096 22.1548 418.663 22.5875C418.231 23.0202 417.711 23.2366 417.106 23.2366C416.5 23.2366 415.981 23.0202 415.548 22.5875ZM415.548 16.3564C415.115 15.9237 414.899 15.4045 414.899 14.7987C414.899 14.1929 415.115 13.6736 415.548 13.2409C415.981 12.8082 416.5 12.5919 417.106 12.5919C417.711 12.5919 418.231 12.8082 418.663 13.2409C419.096 13.6736 419.312 14.1929 419.312 14.7987C419.312 15.4045 419.096 15.9237 418.663 16.3564C418.231 16.7459 417.711 16.9406 417.106 16.9406C416.5 16.9406 415.981 16.7459 415.548 16.3564ZM412.757 0H421.519C422.125 0 422.644 0.237991 423.077 0.713974C423.51 1.14669 423.726 1.64431 423.726 2.20683C423.726 2.81263 423.51 3.33188 423.077 3.76459C422.644 4.1973 422.125 4.41366 421.519 4.41366H412.757C412.151 4.41366 411.632 4.1973 411.199 3.76459C410.766 3.33188 410.55 2.81263 410.55 2.20683C410.55 1.64431 410.766 1.14669 411.199 0.713974C411.675 0.237991 412.194 0 412.757 0ZM607.79 22.5875C607.358 22.1548 607.141 21.6355 607.141 21.0297C607.141 20.4239 607.358 19.9263 607.79 19.5369C608.223 19.1042 608.742 18.8878 609.348 18.8878C609.954 18.8878 610.473 19.1042 610.906 19.5369C611.339 19.9263 611.555 20.4239 611.555 21.0297C611.555 21.6355 611.339 22.1548 610.906 22.5875C610.473 23.0202 609.954 23.2366 609.348 23.2366C608.742 23.2366 608.223 23.0202 607.79 22.5875ZM607.79 28.8834C607.358 28.4507 607.141 27.9315 607.141 27.3257C607.141 26.7199 607.358 26.2223 607.79 25.8328C608.223 25.4001 608.742 25.1838 609.348 25.1838C609.954 25.1838 610.473 25.4001 610.906 25.8328C611.339 26.2223 611.555 26.7199 611.555 27.3257C611.555 27.9315 611.339 28.4507 610.906 28.8834C610.473 29.3162 609.954 29.5325 609.348 29.5325C608.742 29.5325 608.223 29.3162 607.79 28.8834ZM607.141 2.20683C607.141 1.64431 607.358 1.14669 607.79 0.713974C608.266 0.237991 608.786 0 609.348 0C609.911 0 610.408 0.237991 610.841 0.713974C611.317 1.14669 611.555 1.64431 611.555 2.20683C611.555 2.81263 611.339 3.33188 610.906 3.76459C610.473 4.1973 609.954 4.41366 609.348 4.41366C608.742 4.41366 608.223 4.1973 607.79 3.76459C607.358 3.33188 607.141 2.81263 607.141 2.20683ZM607.79 16.3564C607.358 15.9237 607.141 15.4045 607.141 14.7987C607.141 14.1929 607.358 13.6736 607.79 13.2409C608.223 12.8082 608.742 12.5919 609.348 12.5919C609.954 12.5919 610.473 12.8082 610.906 13.2409C611.339 13.6736 611.555 14.1929 611.555 14.7987C611.555 15.4045 611.339 15.9237 610.906 16.3564C610.473 16.7459 609.954 16.9406 609.348 16.9406C608.742 16.9406 608.223 16.7459 607.79 16.3564ZM613.697 10.8394H609.348C608.742 10.8394 608.223 10.623 607.79 10.1903C607.358 9.75765 607.141 9.23839 607.141 8.6326C607.141 8.0268 607.358 7.50755 607.79 7.07483C608.266 6.64212 608.786 6.42577 609.348 6.42577H613.697C614.303 6.42577 614.822 6.64212 615.255 7.07483C615.687 7.50755 615.904 8.0268 615.904 8.6326C615.904 9.23839 615.687 9.75765 615.255 10.1903C614.822 10.623 614.303 10.8394 613.697 10.8394ZM616.553 16.3564C616.12 15.9237 615.904 15.4045 615.904 14.7987C615.904 14.1929 616.12 13.6736 616.553 13.2409C616.986 12.8082 617.505 12.5919 618.111 12.5919C618.716 12.5919 619.236 12.8082 619.668 13.2409C620.101 13.6736 620.317 14.1929 620.317 14.7987C620.317 15.4045 620.101 15.9237 619.668 16.3564C619.236 16.7459 618.716 16.9406 618.111 16.9406C617.505 16.9406 616.986 16.7459 616.553 16.3564ZM626.808 10.8394H622.459C621.854 10.8394 621.334 10.623 620.902 10.1903C620.469 9.75765 620.253 9.23839 620.253 8.6326C620.253 8.0268 620.469 7.50755 620.902 7.07483C621.378 6.64212 621.897 6.42577 622.459 6.42577H626.808C627.414 6.42577 627.933 6.64212 628.366 7.07483C628.799 7.50755 629.015 8.0268 629.015 8.6326C629.015 9.23839 628.799 9.75765 628.366 10.1903C627.933 10.623 627.414 10.8394 626.808 10.8394ZM625.25 22.5875C624.818 22.1548 624.601 21.6355 624.601 21.0297C624.601 20.4239 624.818 19.9263 625.25 19.5369C625.683 19.1042 626.202 18.8878 626.808 18.8878C627.414 18.8878 627.933 19.1042 628.366 19.5369C628.799 19.9263 629.015 20.4239 629.015 21.0297C629.015 21.6355 628.799 22.1548 628.366 22.5875C627.933 23.0202 627.414 23.2366 626.808 23.2366C626.202 23.2366 625.683 23.0202 625.25 22.5875ZM624.601 2.20683C624.601 1.64431 624.818 1.14669 625.25 0.713974C625.683 0.237991 626.202 0 626.808 0C627.414 0 627.933 0.237991 628.366 0.713974C628.799 1.14669 629.015 1.64431 629.015 2.20683C629.015 2.81263 628.799 3.33188 628.366 3.76459C627.933 4.1973 627.414 4.41366 626.808 4.41366C626.202 4.41366 625.683 4.1973 625.25 3.76459C624.818 3.33188 624.601 2.81263 624.601 2.20683ZM625.25 16.3564C624.818 15.9237 624.601 15.4045 624.601 14.7987C624.601 14.1929 624.818 13.6736 625.25 13.2409C625.683 12.8082 626.202 12.5919 626.808 12.5919C627.414 12.5919 627.933 12.8082 628.366 13.2409C628.799 13.6736 629.015 14.1929 629.015 14.7987C629.015 15.4045 628.799 15.9237 628.366 16.3564C627.933 16.7459 627.414 16.9406 626.808 16.9406C626.202 16.9406 625.683 16.7459 625.25 16.3564ZM625.25 28.8834C624.818 28.4507 624.601 27.9315 624.601 27.3257C624.601 26.7199 624.818 26.2223 625.25 25.8328C625.683 25.4001 626.202 25.1838 626.808 25.1838C627.414 25.1838 627.933 25.4001 628.366 25.8328C628.799 26.2223 629.015 26.7199 629.015 27.3257C629.015 27.9315 628.799 28.4507 628.366 28.8834C627.933 29.3162 627.414 29.5325 626.808 29.5325C626.202 29.5325 625.683 29.3162 625.25 28.8834ZM813.066 22.5875C812.633 22.1548 812.416 21.6355 812.416 21.0297C812.416 20.4239 812.633 19.9263 813.066 19.5369C813.498 19.1042 814.017 18.8878 814.623 18.8878C815.229 18.8878 815.748 19.1042 816.181 19.5369C816.614 19.9263 816.83 20.4239 816.83 21.0297C816.83 21.6355 816.614 22.1548 816.181 22.5875C815.748 23.0202 815.229 23.2366 814.623 23.2366C814.017 23.2366 813.498 23.0202 813.066 22.5875ZM813.066 16.3564C812.633 15.9237 812.416 15.4045 812.416 14.7987C812.416 14.1929 812.633 13.6736 813.066 13.2409C813.498 12.8082 814.017 12.5919 814.623 12.5919C815.229 12.5919 815.748 12.8082 816.181 13.2409C816.614 13.6736 816.83 14.1929 816.83 14.7987C816.83 15.4045 816.614 15.9237 816.181 16.3564C815.748 16.7459 815.229 16.9406 814.623 16.9406C814.017 16.9406 813.498 16.7459 813.066 16.3564ZM818.972 25.1838H827.734C828.34 25.1838 828.859 25.4001 829.292 25.8328C829.725 26.2223 829.941 26.7199 829.941 27.3257C829.941 27.9315 829.725 28.4507 829.292 28.8834C828.859 29.3162 828.34 29.5325 827.734 29.5325H818.972C818.366 29.5325 817.847 29.3162 817.414 28.8834C816.982 28.4507 816.765 27.9315 816.765 27.3257C816.765 26.7199 816.982 26.2223 817.414 25.8328C817.847 25.4001 818.366 25.1838 818.972 25.1838ZM812.416 2.20683C812.416 1.64431 812.633 1.14669 813.066 0.713974C813.541 0.237991 814.061 0 814.623 0C815.186 0 815.683 0.237991 816.116 0.713974C816.592 1.14669 816.83 1.64431 816.83 2.20683C816.83 2.81263 816.614 3.33188 816.181 3.76459C815.748 4.1973 815.229 4.41366 814.623 4.41366C814.017 4.41366 813.498 4.1973 813.066 3.76459C812.633 3.33188 812.416 2.81263 812.416 2.20683ZM813.066 10.1903C812.633 9.75765 812.416 9.23839 812.416 8.6326C812.416 8.0268 812.633 7.50755 813.066 7.07483C813.541 6.64212 814.061 6.42577 814.623 6.42577C815.186 6.42577 815.683 6.64212 816.116 7.07483C816.592 7.50755 816.83 8.0268 816.83 8.6326C816.83 9.23839 816.614 9.75765 816.181 10.1903C815.748 10.623 815.229 10.8394 814.623 10.8394C814.017 10.8394 813.498 10.623 813.066 10.1903ZM829.876 2.20683C829.876 1.64431 830.093 1.14669 830.525 0.713974C830.958 0.237991 831.477 0 832.083 0C832.689 0 833.208 0.237991 833.641 0.713974C834.074 1.14669 834.29 1.64431 834.29 2.20683C834.29 2.81263 834.074 3.33188 833.641 3.76459C833.208 4.1973 832.689 4.41366 832.083 4.41366C831.477 4.41366 830.958 4.1973 830.525 3.76459C830.093 3.33188 829.876 2.81263 829.876 2.20683ZM830.525 10.1903C830.093 9.75765 829.876 9.23839 829.876 8.6326C829.876 8.0268 830.093 7.50755 830.525 7.07483C830.958 6.64212 831.477 6.42577 832.083 6.42577C832.689 6.42577 833.208 6.64212 833.641 7.07483C834.074 7.50755 834.29 8.0268 834.29 8.6326C834.29 9.23839 834.074 9.75765 833.641 10.1903C833.208 10.623 832.689 10.8394 832.083 10.8394C831.477 10.8394 830.958 10.623 830.525 10.1903ZM830.525 22.5875C830.093 22.1548 829.876 21.6355 829.876 21.0297C829.876 20.4239 830.093 19.9263 830.525 19.5369C830.958 19.1042 831.477 18.8878 832.083 18.8878C832.689 18.8878 833.208 19.1042 833.641 19.5369C834.074 19.9263 834.29 20.4239 834.29 21.0297C834.29 21.6355 834.074 22.1548 833.641 22.5875C833.208 23.0202 832.689 23.2366 832.083 23.2366C831.477 23.2366 830.958 23.0202 830.525 22.5875ZM830.525 16.3564C830.093 15.9237 829.876 15.4045 829.876 14.7987C829.876 14.1929 830.093 13.6736 830.525 13.2409C830.958 12.8082 831.477 12.5919 832.083 12.5919C832.689 12.5919 833.208 12.8082 833.641 13.2409C834.074 13.6736 834.29 14.1929 834.29 14.7987C834.29 15.4045 834.074 15.9237 833.641 16.3564C833.208 16.7459 832.689 16.9406 832.083 16.9406C831.477 16.9406 830.958 16.7459 830.525 16.3564ZM1019.9 0H1037.36C1037.96 0 1038.48 0.237991 1038.92 0.713974C1039.35 1.14669 1039.57 1.64431 1039.57 2.20683C1039.57 2.81263 1039.35 3.33188 1038.92 3.76459C1038.48 4.1973 1037.96 4.41366 1037.36 4.41366H1019.9C1019.29 4.41366 1018.77 4.1973 1018.34 3.76459C1017.91 3.33188 1017.69 2.81263 1017.69 2.20683C1017.69 1.64431 1017.91 1.14669 1018.34 0.713974C1018.82 0.237991 1019.34 0 1019.9 0ZM1027.1 10.1903C1026.67 9.75765 1026.45 9.23839 1026.45 8.6326C1026.45 8.0268 1026.67 7.50755 1027.1 7.07483C1027.54 6.64212 1028.06 6.42577 1028.66 6.42577C1029.27 6.42577 1029.79 6.64212 1030.22 7.07483C1030.65 7.50755 1030.87 8.0268 1030.87 8.6326C1030.87 9.23839 1030.65 9.75765 1030.22 10.1903C1029.79 10.623 1029.27 10.8394 1028.66 10.8394C1028.06 10.8394 1027.54 10.623 1027.1 10.1903ZM1027.1 16.3564C1026.67 15.9237 1026.45 15.4045 1026.45 14.7987C1026.45 14.1929 1026.67 13.6736 1027.1 13.2409C1027.54 12.8082 1028.06 12.5919 1028.66 12.5919C1029.27 12.5919 1029.79 12.8082 1030.22 13.2409C1030.65 13.6736 1030.87 14.1929 1030.87 14.7987C1030.87 15.4045 1030.65 15.9237 1030.22 16.3564C1029.79 16.7459 1029.27 16.9406 1028.66 16.9406C1028.06 16.9406 1027.54 16.7459 1027.1 16.3564ZM1027.1 22.5875C1026.67 22.1548 1026.45 21.6355 1026.45 21.0297C1026.45 20.4239 1026.67 19.9263 1027.1 19.5369C1027.54 19.1042 1028.06 18.8878 1028.66 18.8878C1029.27 18.8878 1029.79 19.1042 1030.22 19.5369C1030.65 19.9263 1030.87 20.4239 1030.87 21.0297C1030.87 21.6355 1030.65 22.1548 1030.22 22.5875C1029.79 23.0202 1029.27 23.2366 1028.66 23.2366C1028.06 23.2366 1027.54 23.0202 1027.1 22.5875ZM1027.1 28.8834C1026.67 28.4507 1026.45 27.9315 1026.45 27.3257C1026.45 26.7199 1026.67 26.2223 1027.1 25.8328C1027.54 25.4001 1028.06 25.1838 1028.66 25.1838C1029.27 25.1838 1029.79 25.4001 1030.22 25.8328C1030.65 26.2223 1030.87 26.7199 1030.87 27.3257C1030.87 27.9315 1030.65 28.4507 1030.22 28.8834C1029.79 29.3162 1029.27 29.5325 1028.66 29.5325C1028.06 29.5325 1027.54 29.3162 1027.1 28.8834Z" fill="white"/>
</g>
<defs>
<clipPath id="clip0_829_1519">
<rect width="1040" height="30" fill="white"/>
</clipPath>
</defs>
</svg>
