<svg width="289" height="164" viewBox="0 0 289 164" fill="none" xmlns="http://www.w3.org/2000/svg">
<path d="M30.3298 61.8744L27.3072 64.7596H14.5988L11.5762 62.0118L14.5988 59.1266H27.3072L30.3298 61.8744ZM34.1766 88.0469L31.4289 91.0695L28.475 88.0469V65.9961L31.2228 62.9735L34.1766 65.9961V88.0469ZM34.1766 118.066L31.4289 121.158L28.475 118.066V96.0841L31.2228 93.0616L34.1766 96.0841V118.066ZM51.0754 122.051L48.0529 124.936H35.3445L32.3219 122.188L35.3445 119.303H48.0529L51.0754 122.051ZM30.3298 122.051L27.3072 124.936H14.5988L11.5762 122.188L14.5988 119.303H27.3072L30.3298 122.051ZM106.017 61.8744L102.995 64.7596H90.2864L87.2639 62.0118L90.2864 59.1266H102.995L106.017 61.8744ZM109.796 88.0469L107.048 91.0695L104.163 88.0469V65.8587L106.91 62.8361L109.796 65.8587V88.0469ZM85.2718 61.8744L82.2492 64.7596H69.5408L66.5182 62.0118L69.5408 59.1266H82.2492L85.2718 61.8744ZM106.017 91.9625L102.995 94.8477H90.2864L87.2639 92.0999L90.2864 89.2147H102.995L106.017 91.9625ZM85.2718 91.9625L82.2492 94.8477H69.5408L66.5182 92.0999L69.5408 89.2147H82.2492L85.2718 91.9625ZM106.017 122.051L102.995 124.936H90.2864L87.2639 122.188L90.2864 119.303H102.995L106.017 122.051ZM68.373 118.066L65.6252 121.158L62.74 118.066V96.0841L65.4878 93.0616L68.373 96.0841V118.066ZM85.2718 122.051L82.2492 124.936H69.5408L66.5182 122.188L69.5408 119.303H82.2492L85.2718 122.051ZM146.19 82.8948C146.19 84.3145 145.709 85.4823 144.748 86.3983C143.832 87.3142 142.664 87.7721 141.244 87.7721C139.87 87.7721 138.68 87.3142 137.672 86.3983C136.71 85.4365 136.229 84.2687 136.229 82.8948C136.229 81.521 136.71 80.3532 137.672 79.3914C138.68 78.3839 139.87 77.8802 141.244 77.8802C142.618 77.8802 143.786 78.3839 144.748 79.3914C145.709 80.3532 146.19 81.521 146.19 82.8948ZM146.19 101.168C146.19 102.496 145.686 103.686 144.679 104.74C143.717 105.747 142.572 106.251 141.244 106.251C139.87 106.251 138.68 105.747 137.672 104.74C136.71 103.732 136.229 102.541 136.229 101.168C136.229 99.7478 136.71 98.58 137.672 97.6641C138.634 96.7482 139.824 96.2902 141.244 96.2902C142.572 96.2902 143.717 96.7711 144.679 97.7328C145.686 98.6945 146.19 99.8394 146.19 101.168ZM215.901 61.8744L212.879 64.7596H200.17L197.148 62.0118L200.17 59.1266H212.879L215.901 61.8744ZM219.68 88.0469L216.932 91.0695L214.047 88.0469V65.8587L216.794 62.8361L219.68 65.8587V88.0469ZM195.156 61.8744L192.133 64.7596H179.425L176.402 62.0118L179.425 59.1266H192.133L195.156 61.8744ZM215.901 91.9625L212.879 94.8477H200.17L197.148 92.0999L200.17 89.2147H212.879L215.901 91.9625ZM219.68 118.066L216.932 121.158L214.047 118.066V96.0841L216.794 93.0616L219.68 96.0841V118.066ZM215.901 122.051L212.879 124.936H200.17L197.148 122.188L200.17 119.303H212.879L215.901 122.051ZM195.156 122.051L192.133 124.936H179.425L176.402 122.188L179.425 119.303H192.133L195.156 122.051ZM270.843 61.8744L267.821 64.7596H255.112L252.09 62.0118L255.112 59.1266H267.821L270.843 61.8744ZM274.622 88.0469L271.874 91.0695L268.989 88.0469V65.8587L271.736 62.8361L274.622 65.8587V88.0469ZM267.958 73.1403L257.448 88.1843H254.906V82.2766L266.447 65.79H267.958V73.1403ZM250.098 61.8744L247.075 64.7596H234.367L231.344 62.0118L234.367 59.1266H247.075L250.098 61.8744ZM274.622 118.066L271.874 121.158L268.989 118.066V96.0841L271.736 93.0616L274.622 96.0841V118.066ZM233.199 88.0469L230.451 91.0695L227.566 88.0469V65.9961L230.314 62.9735L233.199 65.9961V88.0469ZM270.843 122.051L267.821 124.936H255.112L252.09 122.188L255.112 119.303H267.821L270.843 122.051ZM247.281 101.786L235.741 118.272H234.229V110.991L244.74 95.8781H247.281V101.786ZM233.199 118.066L230.451 121.158L227.566 118.066V96.0841L230.314 93.0616L233.199 96.0841V118.066ZM250.098 122.051L247.075 124.936H234.367L231.344 122.188L234.367 119.303H247.075L250.098 122.051Z" fill="#191919"/>
<path d="M158.199 27.8834L157.251 28.7883H153.265L152.316 27.9265L153.265 27.0215H157.251L158.199 27.8834ZM151.692 27.8834L150.744 28.7883H146.757L145.809 27.9265L146.757 27.0215H150.744L151.692 27.8834ZM158.199 37.3208L157.251 38.2257H153.265L152.316 37.3639L153.265 36.4589H157.251L158.199 37.3208ZM159.384 45.5084L158.522 46.478L157.617 45.5084V38.6136L158.479 37.6655L159.384 38.6136V45.5084ZM146.391 36.0926L145.529 37.0407L144.624 36.0926V29.1762L145.486 28.2281L146.391 29.1762V36.0926ZM151.692 37.3208L150.744 38.2257H146.757L145.809 37.3639L146.757 36.4589H150.744L151.692 37.3208ZM158.199 46.7581L157.251 47.6631H153.265L152.316 46.8012L153.265 45.8963H157.251L158.199 46.7581ZM151.692 46.7581L150.744 47.6631H146.757L145.809 46.8012L146.757 45.8963H150.744L151.692 46.7581ZM176.617 36.0926L175.755 37.0407L174.85 36.0926V29.1331L175.712 28.185L176.617 29.1331V36.0926ZM176.617 45.5084L175.755 46.478L174.85 45.5084V38.6136L175.712 37.6655L176.617 38.6136V45.5084ZM163.624 36.0926L162.762 37.0407L161.857 36.0926V29.1762L162.719 28.2281L163.624 29.1762V36.0926ZM175.432 46.7581L174.484 47.6631H170.498L169.549 46.8012L170.498 45.8963H174.484L175.432 46.7581ZM163.624 45.5084L162.762 46.478L161.857 45.5084V38.6136L162.719 37.6655L163.624 38.6136V45.5084ZM168.925 46.7581L167.977 47.6631H163.99L163.042 46.8012L163.99 45.8963H167.977L168.925 46.7581Z" fill="#191919"/>
<path d="M15.7424 27.8834L14.7944 28.7883H10.8082L9.86019 27.9265L10.8082 27.0215H14.7944L15.7424 27.8834ZM16.949 36.0926L16.0871 37.0407L15.1606 36.0926V29.1762L16.0225 28.2281L16.949 29.1762V36.0926ZM16.949 45.5084L16.0871 46.478L15.1606 45.5084V38.6136L16.0225 37.6655L16.949 38.6136V45.5084ZM22.2495 46.7581L21.3014 47.6631H17.3153L16.3672 46.8012L17.3153 45.8963H21.3014L22.2495 46.7581ZM15.7424 46.7581L14.7944 47.6631H10.8082L9.86019 46.8012L10.8082 45.8963H14.7944L15.7424 46.7581ZM39.4825 27.8834L38.5344 28.7883H34.5483L33.6003 27.9265L34.5483 27.0215H38.5344L39.4825 27.8834ZM40.6675 36.0926L39.8057 37.0407L38.9007 36.0926V29.1331L39.7626 28.185L40.6675 29.1331V36.0926ZM32.9754 27.8834L32.0274 28.7883H28.0413L27.0932 27.9265L28.0413 27.0215H32.0274L32.9754 27.8834ZM39.4825 37.3208L38.5344 38.2257H34.5483L33.6003 37.3639L34.5483 36.4589H38.5344L39.4825 37.3208ZM32.9754 37.3208L32.0274 38.2257H28.0413L27.0932 37.3639L28.0413 36.4589H32.0274L32.9754 37.3208ZM39.4825 46.7581L38.5344 47.6631H34.5483L33.6003 46.8012L34.5483 45.8963H38.5344L39.4825 46.7581ZM27.675 45.5084L26.8131 46.478L25.9082 45.5084V38.6136L26.77 37.6655L27.675 38.6136V45.5084ZM32.9754 46.7581L32.0274 47.6631H28.0413L27.0932 46.8012L28.0413 45.8963H32.0274L32.9754 46.7581ZM57.9006 36.0926L57.0387 37.0407L56.1337 36.0926V29.1331L56.9956 28.185L57.9006 29.1331V36.0926ZM56.7155 37.3208L55.7675 38.2257H51.7813L50.8333 37.3639L51.7813 36.4589H55.7675L56.7155 37.3208ZM57.9006 45.5084L57.0387 46.478L56.1337 45.5084V38.6136L56.9956 37.6655L57.9006 38.6136V45.5084ZM44.908 36.0926L44.0461 37.0407L43.1412 36.0926V29.1762L44.003 28.2281L44.908 29.1762V36.0926ZM50.2084 37.3208L49.2604 38.2257H45.2743L44.3262 37.3639L45.2743 36.4589H49.2604L50.2084 37.3208ZM44.908 45.5084L44.0461 46.478L43.1412 45.5084V38.6136L44.003 37.6655L44.908 38.6136V45.5084Z" fill="#191919"/>
<path d="M271.581 27.8834L270.633 28.7883H266.647L265.699 27.9265L266.647 27.0215H270.633L271.581 27.8834ZM272.767 36.0926L271.905 37.0407L271 36.0926V29.1331L271.862 28.185L272.767 29.1331V36.0926ZM265.074 27.8834L264.126 28.7883H260.14L259.192 27.9265L260.14 27.0215H264.126L265.074 27.8834ZM271.581 37.3208L270.633 38.2257H266.647L265.699 37.3639L266.647 36.4589H270.633L271.581 37.3208ZM272.767 45.5084L271.905 46.478L271 45.5084V38.6136L271.862 37.6655L272.767 38.6136V45.5084ZM271.581 46.7581L270.633 47.6631H266.647L265.699 46.8012L266.647 45.8963H270.633L271.581 46.7581ZM265.074 46.7581L264.126 47.6631H260.14L259.192 46.8012L260.14 45.8963H264.126L265.074 46.7581Z" fill="#191919"/>
</svg>
